<svg id="chicken" xmlns="http://www.w3.org/2000/svg" width="100.648" height="77.227" viewBox="0 0 100.648 77.227">
  <path id="パス_299" data-name="パス 299" d="M265.724,263.381,262.24,271.8a11.9,11.9,0,0,0-1.452.194,22.744,22.744,0,0,1-3.2.291,1.4,1.4,0,0,0-.967.291s-.871.1-1.065.676h.968a1.414,1.414,0,0,0,1.453.194,3.214,3.214,0,0,1,1.451,0s-2.516.484-3,1.065a3.36,3.36,0,0,0-1.742.968c-.776.194-1.84,1.065-1.84,1.743,0,0,.774-.484,1.162-.387a1.538,1.538,0,0,0,1.743-.291c.581-.678,2.129-.678,2.614-1.162a8.043,8.043,0,0,0,2.42-.29l.774-.388s.968,0,.968.291c-.291.483-.871,2.033-.291,2.517s.967.871.967.871v-.677l.291-.775.291-.968a4.621,4.621,0,0,0,.581-1.355c0-.388.484-1.066.484-1.356s.484-.483.484-.483.774-.387.678-.774a1.885,1.885,0,0,0-.581-.774l.678-.967.871-1.066.871-.581s.872-.1.872-.58,1.163-1.065,1.163-1.065-1.259-.581-1.744-.1a6.942,6.942,0,0,1-1.452.968l1.743-4.356-.871-.871Z" transform="translate(-218.549 -201.159)" fill="#f7c683"/>
  <path id="パス_300" data-name="パス 300" d="M260.206,262.461l-1.259,1.839-2.032,2.71-1.066.194-3.291-.388.677,1.646,1.646-.1-1.838,1.161,1.064,1.259s2.9-.968,3.194-1.161-1.064.774-1.064.774-1.453.678-1.453,1.453c-.483.581.2,1.646.2,1.646l.579-1.162a1.727,1.727,0,0,0,.969-.581,2.829,2.829,0,0,1,1.356-.774,1.382,1.382,0,0,0,.774-.968c.194-.581.193-.774.678-1.064a3.833,3.833,0,0,0,.872-.774l.387-.871.58-1.259,1.549-.774,1.163-.775-.679-.193a.928.928,0,0,0-.773,0l-.388.193,1.064-1.936Z" transform="translate(-218.451 -201.11)" fill="#f7c683"/>
  <path id="パス_301" data-name="パス 301" d="M298.635,180.342c0-.871-.969-.871-1.744-1.936a5.1,5.1,0,0,0-2.42-2.516c-1.259-2.13-4.743-2.517-5.614-2.517a4.31,4.31,0,0,0-2.516-1.355c-1.646-1.743-6.487-2.808-11.424-1.26s-12.2,8.81-15.005,11.908a7.547,7.547,0,0,0-2.019.622.831.831,0,0,1-.033-.28,2.535,2.535,0,0,0-1.137.428,1.328,1.328,0,0,1,.541-.7c-.162.023-.315-.068-.532.017a1.242,1.242,0,0,1,.07-.374,2.667,2.667,0,0,0-.476.717c0-.262.005-.524.012-.784-.1.159-.315.273-.423.421-.007-.1-.071-.241-.083-.359-.155.143-.362.214-.474.429a1.174,1.174,0,0,1-.185-.977,1.839,1.839,0,0,0-.3.528,2.984,2.984,0,0,0-.015-.551,2.471,2.471,0,0,0-.346.37,1.018,1.018,0,0,0-.124-.157c0,.22-.167.387-.194.484a3.614,3.614,0,0,1-.311-.893c-.1.372-.419.628-.557,1.027-.08-.2-.24-.341-.317-.545a5.647,5.647,0,0,0-.09.666c-.04-.064-.212-.21-.25-.273-.018.186-.109.289-.14.465a3.53,3.53,0,0,1-.346-.467c-.051.4-.12,1.344-.589,1.339-.1-.378-.2-.769-.323-1.14a.967.967,0,0,0-.187.749,3.219,3.219,0,0,1-.358-.046c-.01.376.055.751-.208,1.043a1.038,1.038,0,0,1-.271-.2,2.619,2.619,0,0,1-.028.284c-.2-.181-.4-.373-.6-.559a2.94,2.94,0,0,0,.017,1.6,1.006,1.006,0,0,1-.679-.237,1.99,1.99,0,0,1,0,.253,2.219,2.219,0,0,1-.816-.546,4.225,4.225,0,0,0,.893,1.332,5.757,5.757,0,0,0-.829.009c.057.053.138.2.224.272a.5.5,0,0,1-.612.309c.163.084.2.239.472.293a2.066,2.066,0,0,1-1.051.58c.129.093.325.37.466.447a.88.88,0,0,0-.662.232,5.038,5.038,0,0,0,.831.953c-.254.028-.463.1-.734.115a2.948,2.948,0,0,1,.786.537,2.8,2.8,0,0,1-.784.43c.164.09.4.335.562.442-.238.088-.421.228-.665.338a3.126,3.126,0,0,0,.475.186,2.761,2.761,0,0,1-.928.589c.169.036.337.213.461.261-.217.25-.572.267-.87.433.155.313.859.433,1.236.559a4.217,4.217,0,0,1-.661.439c.088.035.2.092.274.118-.21.317-.649.345-.853.658.136-.016.324.05.466.035a1.5,1.5,0,0,1-.542.674c.449-.094.867-.18,1.317-.259-.169.187-.36.382-.539.551.125-.082.275-.138.4-.222-.217.42-.61.6-.782,1.016a3.172,3.172,0,0,0,.725-.311,3.6,3.6,0,0,1-.38.826,1.4,1.4,0,0,1,.768-.536c-.068.2-.031.3-.166.459.069-.08.258-.176.356-.267.021.206.021.417.022.628-1.654.79-3.912,1.861-4.844,2.268-1.549.678-4.066,3.388-6.195,4.744a35,35,0,0,0-6.385,3.1c-3.485,2.033-8.091,9.246-10.75,17.518a8.6,8.6,0,0,1-2.033,3.1l-4.841,2.42-2.808,1.162,1.065,5.808s6.68-2.226,8.228-.1,2.807,1.743,2.807,1.743c.149.133.3.256.452.371,2.643,1.989,5.889,1.474,6.713,1.565a16.008,16.008,0,0,1,2.517.678l-.194-.484c.58.388,2.807.1,2.807.1v-.291c1.066-.1,2.613-.1,3.1-.1a4.768,4.768,0,0,1,1.26.291l-.1-.388a7.452,7.452,0,0,0,1.837-.678l-1.258-.581,1.163.1-1.453-2.129h.775c9.452.444,11.481-4.618,11.891-4.37.011-.054.021-.108.033-.163.375-.067.6.179.955.182.368,0,.509-.222.87-.2a1.5,1.5,0,0,1,1.26.74,6.889,6.889,0,0,1,.011-.732,3.03,3.03,0,0,1,1.05.877,3.137,3.137,0,0,0-.254-1.208.749.749,0,0,1,.645.462c-.04-.3-.067-.522-.089-.81.078.055.243.1.34.156-.456-.268,1.4-1.108,1.476-1.139a3.587,3.587,0,0,0,1.774-1.263,10.937,10.937,0,0,0,1.528-4.246c1.646-.1,7.744-3.486,8.035-5.035,2.324-1.742,2.517-3.388,1.064-4.937a8.666,8.666,0,0,0,1.066-3.871,2.031,2.031,0,0,0,1.161-.194c1.163-1.258.969-4.55.969-4.55l1.163,1.646a7.171,7.171,0,0,0,.194-2.226l.773.1a3.062,3.062,0,0,0,.388-2.42l.678.774.387,1.453a2.745,2.745,0,0,1,.1,1.161,2.279,2.279,0,0,0,.291,1.259l.193,1.258a13.829,13.829,0,0,0,.194,2.324,5.677,5.677,0,0,0-.387,3.1l-1.258,1.839c2.42-1.064,5.325-6.68,5.325-6.68,0,1.839-2.808,7.067-2.808,7.067a30.538,30.538,0,0,0,4.259-6.389l.1.484a10.192,10.192,0,0,0,1.944-3.5c-.066.328-.127.644-.2.984-2.324,10.551-1.936,14.908-1.355,15.779-.774-4.646,2.129-14.037,3.581-19.555s2.323-11.714.871-14.714c1.357-1.839,1.356-3.582,1.743-4.647s-.967-1.451-1.549-1.355l.583-.581c3.871,1.645,3,24.686,2.516,27.493s-.872,10.842,1.258,13.359c-.775-2.517.581-12,1.259-18.006a59.26,59.26,0,0,0-.1-15.586l.774.871a24.1,24.1,0,0,0-2.323-11.714l.289-.291a7.613,7.613,0,0,0,1.839.871,12.192,12.192,0,0,0,3,1.065c2.227.581,7.067,7.744,7.552,8.906C305.217,187.6,300.57,181.5,298.635,180.342ZM285.544,205.19a23.928,23.928,0,0,0-1.528-8.682s1.258-2.033,1.451-2.516C285.468,193.992,286.677,197.507,285.544,205.19Z" transform="translate(-204.12 -170.008)" fill="#fff"/>
  <path id="パス_302" data-name="パス 302" d="M215.228,257.046c-.1-.581-.291-1.55-1.453-1.259s-2.71,1.453-3,.678-1.547-1.743-1.743-.774.291,2.129-.484,1.839-2.613-2.71-3.581-1.742c-.193.581.871.968.871.968s.678,1.354.484,1.645-2.517-.774-3.1-.871-.774.291-.193.679,2.806,1.645,2.322,2.033-3.678-.194-4.162-.581c-.193.678.581,1.453,1.162,1.549a4.768,4.768,0,0,1,1.161.387s-1.549-.289-1.646.291.873,1.354,1.356,1.354,1.064.581.678.581-.967-.386-.967.1a1.394,1.394,0,0,0,1.451,1.355c-.774.581.484,1.162.968,1.162-.289.774.873.484.873.484a.583.583,0,0,0,.774.483,17.968,17.968,0,0,0,2.905-.483s.1,1.451.774,1.645,1.258.484,1.742-.1.968-.194.968.581,1.065.386,1.259-.872.774-1.451,1.064-1.258.776-.388.581-1.452a3.072,3.072,0,0,0-1.162-1.743,1.31,1.31,0,0,0-1.258-.774,5.489,5.489,0,0,0-1.839.678c-.581-.29-1.646-.387-2.033.291-.1-.484-.678-.484-.678-.484.387-.774.194-1.161.774-1.936a4.688,4.688,0,0,1,3.872-1.935Z" transform="translate(-201.16 -198.696)" fill="#e60000"/>
  <path id="パス_303" data-name="パス 303" d="M213.244,272.381a10.089,10.089,0,0,1-1.452,1.452,2.606,2.606,0,0,1-.97.193,1.092,1.092,0,0,1,1.066-.871c-.387-.193-1.355,0-1.453,1.162l-.289.194c-.291-.1-.774-.871-.291-1.356a2.173,2.173,0,0,1,1.065-.58Z" transform="translate(-204.016 -204.447)" fill="#ffcd00"/>
  <path id="パス_304" data-name="パス 304" d="M220.011,266.13c-.641.046-1.229-.023-1.654.526a8.648,8.648,0,0,0-.347,1.382c.626-.282.8,1.145,1.441.4.19-.217-.015-.589.284-.872a1.5,1.5,0,0,1,.857-.306c.013-.389-.046-.915-.555-.871C220.021,266.3,220.034,266.22,220.011,266.13Z" transform="translate(-206.829 -202.344)" fill="#f0e8cd"/>
  <path id="パス_305" data-name="パス 305" d="M215.6,269.364a.483.483,0,1,1-.483-.484A.483.483,0,0,1,215.6,269.364Z" transform="translate(-205.691 -203.27)"/>
</svg>
