<svg xmlns="http://www.w3.org/2000/svg" xmlns:xlink="http://www.w3.org/1999/xlink" width="1920" height="200" viewBox="0 0 1920 200">
  <defs>
    <clipPath id="clip-path">
      <rect id="長方形_136" data-name="長方形 136" width="1920" height="200" transform="translate(7936 4791)" fill="#fff"/>
    </clipPath>
    <linearGradient id="linear-gradient" x1="0.5" x2="0.5" y2="0.126" gradientUnits="objectBoundingBox">
      <stop offset="0" stop-color="#859756"/>
      <stop offset="1" stop-color="#0a4549"/>
    </linearGradient>
  </defs>
  <g id="deco-2" transform="translate(-7936 -4791)" clip-path="url(#clip-path)">
    <ellipse id="楕円形_48" data-name="楕円形 48" cx="3360" cy="1220" rx="3360" ry="1220" transform="translate(6480 4791)" fill="#063d41"/>
    <ellipse id="楕円形_49" data-name="楕円形 49" cx="3360" cy="1220" rx="3360" ry="1220" transform="translate(4592 4791)" fill="url(#linear-gradient)"/>
    <g id="グループ_1791" data-name="グループ 1791" transform="translate(8124.151 4829.207)">
      <path id="パス_283" data-name="パス 283" d="M227.192,122.485a.955.955,0,0,0,.232.542s.006,0,.009,0a.921.921,0,0,1,.829.187.846.846,0,0,0,.429.214,6.355,6.355,0,0,0,1.448.268c.188-.08.374-.214.374-.321s-.214-.269-.214-.269a3.71,3.71,0,0,1-2.52-1.1c.188-.107,2.467.242,2.814-.214s.08-3.378.08-3.378l-.134-.991.7-.885h1.125l.67.7s-.054,5.682-.028,6.272.323,2.493.323,2.6.456.349.7.349.857-.054,1.26-.081.858-.242,1.206-.242,1.018-.161,1.206,0c.483-.08,1.153.054,1.26.4-.08.188-.671.269-.671.269-.106.482-.91.482-1.1.4a1.838,1.838,0,0,0-.724.053c-.053.135-.616.269-.83.216l-.107.133c.267.054,1.581.376,1.661.376s1.233.241,1.635.268a2.162,2.162,0,0,1,1.232.536c.671.348,1.421,1.046,1.34,1.636-.054.08-.885-.376-1.019-.537a1.092,1.092,0,0,1-.991.294.982.982,0,0,1-.7-.482,3.45,3.45,0,0,1-.992-.214,1.821,1.821,0,0,1-1.528-.106,2.73,2.73,0,0,1-.885-.214,1.746,1.746,0,0,1-1.286-.3.962.962,0,0,1-.591-.106,1.038,1.038,0,0,1-.482.026,1.9,1.9,0,0,1,.8.859,1.831,1.831,0,0,1,.054,1.581c-.456-.188-.671-.483-.671-.589-.375-.135-.7-.135-.777-.7a1.2,1.2,0,0,1-.295-.295,1.036,1.036,0,0,1-.778-.7,2.739,2.739,0,0,0-.457-.884,3.067,3.067,0,0,1-.749-1.475,15.959,15.959,0,0,0-.135-1.768,1.932,1.932,0,0,1-1.394-.081c-.3,0-.8-.509-.8-.509-.219-.027-.394-.327-.461-.62C226.924,123.025,227.192,122.262,227.192,122.485Z" transform="translate(-178.73 -49.638)" fill="#f4ce6d"/>
      <path id="パス_284" data-name="パス 284" d="M255.337,113.751l-.616,2.547s-.617,4.96-.617,5.388a4.125,4.125,0,0,0,.134,1.046,4.351,4.351,0,0,0,1.152.965c.3.133.51.268.563.428a1.589,1.589,0,0,1,.4,1.18s-.429-.135-.482-.456a2.285,2.285,0,0,1-.751-.081,6.687,6.687,0,0,0,1.341,1.046,8.617,8.617,0,0,0,1.42.374c.268.135.938.321,1.1.563a1.185,1.185,0,0,1,.376.242,3.129,3.129,0,0,1,1.366,1.42c-.187,0-1.1-.161-1.287-.456a1.193,1.193,0,0,1-1.554-.214,1.172,1.172,0,0,1-.455-.214c-.243-.028-.965-.08-.965-.08a2.112,2.112,0,0,1-1.261-.456,3.565,3.565,0,0,1-1.688-1.126,2.8,2.8,0,0,0-.51-.7c-.375-.269-.482-.538-.589-.51s-.054.67-.054.67,0,2.171.08,2.547a1.5,1.5,0,0,1-.267,1.045,3.068,3.068,0,0,1-.644.563c0-.268.027-.751.027-.751a3.764,3.764,0,0,1-.375-1.5c0-.348-.054-.7-.054-.831a15.087,15.087,0,0,1-.107-1.58c.053-.162-.242-.67-.08-.94s.322-.589.322-.589v-.376a5.364,5.364,0,0,1-.135-1.474,1.33,1.33,0,0,1,.242-.483c.107-.134.187-.186.107-.589s0-1.26-.107-1.42-1.153-1.1-1.072-1.475a1.485,1.485,0,0,0,.08-.59c-.027-.107-.508-.67-.508-.884s-.161-.617.026-.724-.215-.321-.215-.321.51-.08.7.214.59.563.751.964a3.354,3.354,0,0,0,.348.751c.081.082.537.376.537.376l.08-.348a10.017,10.017,0,0,1-.108-1.93,1.749,1.749,0,0,0,.724,1.1l.162-4.047,1.286-.348,1.1.776Z" transform="translate(-213.042 -48.007)" fill="#f4ce6d"/>
      <path id="パス_285" data-name="パス 285" d="M208.043,52.651c8.682-18.232,23.816-12.9,25.426-12.154a13.548,13.548,0,0,1,2.108-.372,10.616,10.616,0,0,1,3.97,1.489c1.364.868,6.078,4.961,7.194,8.061l.261.451.012.008a2.409,2.409,0,0,1-.251-.945A4.437,4.437,0,0,1,248,50.455a5.187,5.187,0,0,1,.011-.644c.3.207.542.53.826.722a4.971,4.971,0,0,0,.011-.69,2.465,2.465,0,0,0,.72.956,6.176,6.176,0,0,0,.189-.76c.018.074.166.4.186.5a5.092,5.092,0,0,1,.125-.577,4.8,4.8,0,0,0,.315,1.223c.029-.106.161-.322.2-.474a.779.779,0,0,1,.282.792,5.085,5.085,0,0,1,.443-.956c-.013.231.058.5.05.735.048-.076.277-.285.323-.358-.011.224.046.465.018.7.04-.1.1-.2.137-.3-.031.235.031.482.019.707a3.765,3.765,0,0,0,.226-.451c-.017.4-.084.683-.1,1.062.135-.115.492-.21.583-.281a1.615,1.615,0,0,0-.37.867c.256-.121.588-.172.859-.313-.078.207-.031.366-.179.593.139-.127.289-.209.423-.348-.071.147-.09.434-.179.627.137-.075.344-.068.5-.152a2.354,2.354,0,0,1-.537.859,3.094,3.094,0,0,0,.476.046,1.294,1.294,0,0,1-1.164.339c.148.07.295.124.443.179s.271.086.407.118h0a2.658,2.658,0,0,0,.4.082,11.036,11.036,0,0,0,3.526-2.355c1.239-1.489,2.728-6.946,2.851-8.558a27.869,27.869,0,0,1,1.862-6.946c.991-2.481,4.589-6.574,6.2-7.938l1.363-2.729,3.6-1.116,3.473,2.357.5,1.364s-1.861,8.063-.738,9.147a10.843,10.843,0,0,1,2.722,4.993c.993,1.612,1.241,3.6,2.109,6.7,1.612,2.357,1.861,6.7,2.232,12.527a13.158,13.158,0,0,1-4.092,10.17c-.869.993-1.861,2.234-2.729,3.349,0,0-1.489,1.488-2.357,1.613,0,0-1.664,1.851-1.764,3.09a2.8,2.8,0,0,1-.091-.446,3.358,3.358,0,0,0-.877,1.287c.019-.18-.029-.382-.019-.546a1.66,1.66,0,0,0-.382.667.47.47,0,0,1-.084-.147c-.095.313-.343.465-.49.684-.013-.095-.039-.268-.044-.309a8.4,8.4,0,0,1-.939,1.293,2.946,2.946,0,0,1,.25-1.36,7.5,7.5,0,0,1-1,1.365c0-.159-.015-.319-.01-.482a4.291,4.291,0,0,1-.855,1.719c.01-.186-.041-.409-.032-.6a11.922,11.922,0,0,1-.886,1.175,1.45,1.45,0,0,1,.009-1.153,2.7,2.7,0,0,0-.336.456.439.439,0,0,1-.012-.221,1.37,1.37,0,0,1-1.122,1.2c.121-.149.17-.318.263-.45-.343.609-.867.742-1.364,1.2a4.736,4.736,0,0,1-.009-.984,5.645,5.645,0,0,1-.853,1.36c0-.154-.05-.332-.049-.487-.123.2-.461.749-.471.759-.015-.342-.1-.386-.252-.666a6.979,6.979,0,0,1-.366.794,1.934,1.934,0,0,0-.693-.632c0,.129-.074.326-.072.48-.348-.423-.945-.78-.992-.008-.116-.111-.248-.109-.363-.287.024.214-.044.466-.02.663a1.3,1.3,0,0,0-1.072-.719,3.339,3.339,0,0,1-.164.966c-.073-.067-.25-.159-.323-.224-.03.3-.167.507-.173.818-.266-.435-.342-.892-.685-1.19a7.661,7.661,0,0,1-.539.689,4.008,4.008,0,0,0-.013-.561c-.16.106-.419.113-.6.313.051-.218-.05-.482-.016-.684a1.512,1.512,0,0,0-.756.437c-.039-.1-.078-.2-.111-.31a1.857,1.857,0,0,0-.825.34c.05-.2,0-.328.09-.53-.363.137-.77.412-1.179.53.042-.194-.042-.365.062-.585-.346.08-.747.226-1.081.334.042-.1.036-.358.082-.461-.3.061-.672.142-.957.208.052-.075.12-.172.19-.26a5.63,5.63,0,0,0-.686-.113c.046-.094.048-.359.094-.452a5.6,5.6,0,0,0-.8-.016.087.087,0,0,0,.061-.1c-.242.043-.583-.064-.835-.046a3.176,3.176,0,0,1-.037-.459,15.344,15.344,0,0,0-2.214-1.507s-1.116.62-1.611,0a9.67,9.67,0,0,1-.374-3.226l-.5-1.488.125,2.48L245,81.054l-.123,1.117a12.389,12.389,0,0,1-1.985-5.706c-.372.869.123,4.589.372,5.706a9.963,9.963,0,0,1-1.365-2.357c0,.62-.5.248-.5.248a26.767,26.767,0,0,0,.5,3.845s-2.108-3.349-2.232-5.21a2.139,2.139,0,0,0-.509-1.339c0,.007,0,.013,0,.021,0,.094,0,.186.006.279v.007a13.11,13.11,0,0,1-.757,4.674v0a.149.149,0,0,0-.012.027,1.613,1.613,0,0,1-.273.511l-.068.037-.05-.067c-.221-.36.153-2.862-.309-5.322a18.515,18.515,0,0,0-.655-2.66c.543,3.1.834,6.059-.265,6.419l-.085.017c-.02-.016-.013-.09-.013-.09.653-.275-.36-3.77-1.368-7.159a6.376,6.376,0,0,0-.075,2.765,3.173,3.173,0,0,1-.531-1.8c-.052-.531-.158-1.22-.158-1.22l-.212.319-.372-.743-.158.424-.478-.211v1.379c0,.424.106,1.326.106,1.326a6.03,6.03,0,0,1,.264,1.062,6.364,6.364,0,0,0,1.379,3.341c-.312-.313-.731-.664-1.171-1.157.117.488.2.838.217.956l-.036.07-.074-.015c-.713-.034-2.73-4.672-3.457-7.552a2.206,2.206,0,0,1-.518,1.384,2.5,2.5,0,0,1,.636,1.963,1.763,1.763,0,0,0-.1.411,11.433,11.433,0,0,1,.566,1.68,4.2,4.2,0,0,1,.587,1.787l.165.41a2.413,2.413,0,0,1,.257.642l.252.64a8.526,8.526,0,0,1-.05,4.728,8.005,8.005,0,0,0-.905-4.387l-.244-.612a2.182,2.182,0,0,1-.253-.616l-.161-.395a4.219,4.219,0,0,1-.94-1.613,18.5,18.5,0,0,1-1.757-3.977,1.866,1.866,0,0,1-.3-.543l-.084.149s-.257,1.382-.686,1.7c-.352-1.042-.678-2.1-.938-3.2l-.036-.48a1.177,1.177,0,0,1-.023-.486l-.016-.311a2.767,2.767,0,0,0-.126-.307l-.086.057a1.183,1.183,0,0,0-.212.743,2.392,2.392,0,0,1-.207,1.217,12.635,12.635,0,0,1,.135,1.792,3.071,3.071,0,0,1,.2,1.579l.091.36a1.983,1.983,0,0,1,.187.549l.191.541a35.173,35.173,0,0,0,1.087,3.895,35.692,35.692,0,0,1-2.043-3.56l-.2-.561a1.581,1.581,0,0,1-.2-.571l-.1-.372a3.355,3.355,0,0,1-.6-1.563,12.232,12.232,0,0,1-.615-3.794c-.351-.5-.135-1.264-.053-2.171,0,0-.248-.072-.239.547a5.878,5.878,0,0,1,1.364-4.313l.034-.117c-.364.038-.926.9-1.255,1.911-.05-1.395.776-1.993,1.148-2.812a3.232,3.232,0,0,0-.732.675c.15-1.042.726-2.333.3-1.492a9.166,9.166,0,0,1,1.313-3.013c-.323-.186-.652-.395-.973-.624-1.735-1.24-1.735-4.341-.621-4.465a4.984,4.984,0,0,1-.554-.311c-.021.032-.052.068-.069.1,0,0,0-.058,0-.143-.068-.044-.139-.1-.212-.149a2.353,2.353,0,0,1-.664,1.5c.178-.8-.319,1.083-.973,1.675.251-.406,0-.478,0-.478-.315.639-.36,1.272-.8,1.508a17.87,17.87,0,0,1-1.353,2.749,2.281,2.281,0,0,1-.689,1.171l-.117.289a1.237,1.237,0,0,1-.182.456l-.178.452-1.648,2.97.7-3.337.175-.459a1.208,1.208,0,0,1,.182-.459l.117-.293a2.264,2.264,0,0,1,.327-1.332,10.331,10.331,0,0,1,.857-2.4,1.362,1.362,0,0,0-.105.095l-.1.221a.741.741,0,0,1-.156.346l-.155.344c-.5.732-.892,1.53-1.351,2.316.135-.881.212-1.8.413-2.7l.159-.362a.793.793,0,0,1,.159-.364l.1-.234c.048-.238-.135-.559.3-1.072a7.14,7.14,0,0,1,1.186-2.242c-.043-.437.363-.766.77-1.208,0,0-.174-.184-.4.156.128-.561.989-1.241,1.736-1.563-.018-.052-.031-.1-.045-.155a4.806,4.806,0,0,0-.727.356,1.6,1.6,0,0,1,.652-.652c-.124-.627-.042-1.181.4-1.372a5.405,5.405,0,0,1-2.852-2.232s-1.364.5-2.108.743a6.554,6.554,0,0,1-1.986.248,2.7,2.7,0,0,1-.741-.123,2.779,2.779,0,0,1,.741-1.613c-.37-.62.746-1.984,1.861-2.6l1.119-1.116C214.495,44.837,208.167,52.155,208.043,52.651Z" transform="translate(-208.043 -19.05)" fill="#fff"/>
      <path id="パス_286" data-name="パス 286" d="M216.428,25.7a2.7,2.7,0,0,1-3.271.351,2.657,2.657,0,0,1-1.169-2.219c0-1.052-.351-1.285.585-1.987s.585-1.052.467-1.636-.7-1.4-.117-1.285a4.874,4.874,0,0,1,1.4.7s1.869,1.168,1.985.467a4.443,4.443,0,0,1-.934-1.986V16.818s0-1.169.35-.818a3.4,3.4,0,0,1,.584,1.168s1.753,1.986,2.1,2.22.233-.117.233-.7c0-.265.053-.528.048-.791a2.418,2.418,0,0,1,.041-.8,2.119,2.119,0,0,0,.152-.674c0-.534.45-1.021.848-.429a3.671,3.671,0,0,1,.3.82c.084.217.307.451.406.713.109.288.2.568.324.86a3.651,3.651,0,0,0,.388.607c.183.092.3.459.459-.031a10.1,10.1,0,0,1,.674-1.56c.121-.184.06-.276.183-.459s.826-.948,1.01.153a3.331,3.331,0,0,1,.214,1.683c-.031.245.122.612.306.459s.214-.092.276-.367a.661.661,0,0,1,.244-.459c.153-.153.46-.52.7-.153a1.073,1.073,0,0,1,.214.8c-.03.123-.03.123.214.154s.306.4.123.581-.49.7-.307.8.215.03.368-.061a2.768,2.768,0,0,0,.306-.245c.123-.092.4-.246.459.03l.03.307c.246-.092.336.612.307.887s.031.092.184.4-.031.305.061.4.275.246.458.122.459-.366.43.032a4.343,4.343,0,0,0,0,.7c.244.246-.031.7-.154.765s-.031.184.031.307a1.087,1.087,0,0,1,.031.55c.276.03.4.306.183.49s-.245.459-.459.459-.214-.092-.214-.092A14.946,14.946,0,0,1,226.3,27.9a1.453,1.453,0,0,1-.551.184c-.153,0,0,.092,0,.366s.214.583.214.827.245.611.215.857c.092.368.092.674-.337.8a1.831,1.831,0,0,1,.214,1.193,1.427,1.427,0,0,1-.459,1.194,2.393,2.393,0,0,1-.459.337c-.093.734-.368.672-.643.857a5.753,5.753,0,0,0-.735.642.624.624,0,0,0-.246.4c0,.154-.735.735-1.53-.336a3.57,3.57,0,0,1-.764-2.05,3.528,3.528,0,0,0-.49-.612,5.151,5.151,0,0,1-1.316-.7,1.849,1.849,0,0,1-.336-.46c-.582-.122-.918-.307-.949-.918s-.153-.489-.153-.949c0-.476.162-.544.227-.937.057-.342-.087-.668-.043-1.042a3.261,3.261,0,0,1,1.323-1.957,1.832,1.832,0,0,1,1.477-.441c.287.035,1.235.4,1.473.109s-.2-.581-.479-.66a1.764,1.764,0,0,0-1.163-.122,2.687,2.687,0,0,0-2.3-.214c-.459.244-1.345.734-1.53,1.192Z" transform="translate(-155.531 -15.724)" fill="#e60000"/>
      <path id="パス_287" data-name="パス 287" d="M211.007,33.614a2.026,2.026,0,0,1,.961-.68,16.693,16.693,0,0,1,2.326-.245c.948,0,1.163.276,1.438.642-.153-.03-.949,0-.949,0s-1.163.123-1.407.123h-.735l-.246.214-.336-.246a1.076,1.076,0,0,0-.582.062c-.214.121-.55.489-.489.183C210.991,33.65,211,33.632,211.007,33.614Z" transform="translate(-142.366 -21.431)" fill="#ffa400"/>
      <path id="パス_288" data-name="パス 288" d="M213.776,32a16.692,16.692,0,0,0-2.326.245,2.026,2.026,0,0,0-.961.68,1.788,1.788,0,0,1,.654-.925,1.036,1.036,0,0,1,.49-.214c.306-.061.7-.031.765-.184a.68.68,0,0,0,0-.368l-.336-.275a5.174,5.174,0,0,0,1.009.123c.246.031.4.061.459-.123s.122-.367.275-.306,1.47.429,1.714,1.591a.308.308,0,0,1-.306.4C214.939,32.276,214.724,32,213.776,32Z" transform="translate(-141.849 -20.742)" fill="#ffcd00"/>
      <path id="パス_289" data-name="パス 289" d="M225.154,32.865a1.123,1.123,0,0,1,1.2.294c.306.429.123.7.123.7s.215.182-.061.459a.9.9,0,0,1-.826.245c-.123-.061-.612.092-.612.092s-.031.122-.245-.122c-.078-.09-.136-.171-.253-.192,0-.013-.015-.1,0-.111a.3.3,0,0,1-.079.025.379.379,0,0,1,.052-.2c-.052.007-.125-.021-.178-.011a1.064,1.064,0,0,1,.214-.272c-.033-.013-.073-.056-.123-.067a1.189,1.189,0,0,1,.241-.121.363.363,0,0,1-.148-.2c.088,0,.181,0,.27-.01-.035-.058-.086-.147-.116-.2a.563.563,0,0,0,.3-.073,1.343,1.343,0,0,0-.149-.076A1.647,1.647,0,0,1,225.154,32.865Z" transform="translate(-162.022 -21.473)" fill="#f1d0a5"/>
      <path id="パス_290" data-name="パス 290" d="M220.929,31.728a.668.668,0,1,0,.668-.668A.668.668,0,0,0,220.929,31.728Z" transform="translate(-155.502 -20.883)"/>
    </g>
  </g>
</svg>
