<svg xmlns="http://www.w3.org/2000/svg" xmlns:xlink="http://www.w3.org/1999/xlink" width="1920" height="384" viewBox="0 0 1920 384">
  <defs>
    <clipPath id="clip-path">
      <rect id="長方形_293" data-name="長方形 293" width="1920" height="384" transform="translate(-7792 2476)" fill="#fff"/>
    </clipPath>
    <clipPath id="clip-path-2">
      <rect id="長方形_290" data-name="長方形 290" width="1920" height="2322" transform="translate(-7406 537)" fill="#fff"/>
    </clipPath>
    <clipPath id="clip-path-3">
      <rect id="長方形_288" data-name="長方形 288" width="1828" height="1160.5" transform="translate(0 0)" fill="#fff"/>
    </clipPath>
    <linearGradient id="linear-gradient" x1="0.5" x2="0.5" y2="1" gradientUnits="objectBoundingBox">
      <stop offset="0" stop-color="#859756"/>
      <stop offset="1" stop-color="#0a4549"/>
    </linearGradient>
  </defs>
  <g id="deco-1-2" transform="translate(7792 -2476)" clip-path="url(#clip-path)">
    <rect id="長方形_302" data-name="長方形 302" width="1920" height="384" transform="translate(-7792 2476)" fill="#2f2480"/>
    <g id="deco-1" transform="translate(-386)" clip-path="url(#clip-path-2)">
      <g id="マスクグループ_31" data-name="マスクグループ 31" transform="translate(-7314 1711.494)" clip-path="url(#clip-path-3)">
        <ellipse id="楕円形_96" data-name="楕円形 96" cx="3199" cy="1161" rx="3199" ry="1161" transform="translate(-1733 -1161.5)" fill="#063d41"/>
      </g>
      <ellipse id="楕円形_97" data-name="楕円形 97" cx="3216.5" cy="1167.497" rx="3216.5" ry="1167.497" transform="translate(-11114 537)" fill="url(#linear-gradient)"/>
      <g id="me" transform="translate(-7166 642.954)">
        <path id="パス_2072" data-name="パス 2072" d="M66.659,116.884s0,14.384-.347,14.94,12.374,3.891,14.112,2.849-1.53-4.308-2.642-5.7-2.085-2.084-2.224-4.239-.9-7.3-.695-8.477-8.2.625-8.2.625" transform="translate(-0.493 -0.911)" fill="#ffcab3"/>
        <path id="パス_2073" data-name="パス 2073" d="M92.8,109.538s2.99,7.991,4.8,8.895a28.817,28.817,0,0,0,4.518,2.084c1.4.4,2.92,2.641,2.92,2.641s-13.556,2.44-14.738,2.158-1.321-.7-1.182-1.6-.062-4.378-1.491-5.628-3.1-5.907-3.1-5.907Z" transform="translate(-0.628 -0.861)" fill="#ffcab3"/>
        <path id="パス_2074" data-name="パス 2074" d="M50.226,91.739s5.747,15.009,7.786,17.789,4.264,4.818,4.635,8.153l.37,3.336a22.163,22.163,0,0,0,5.561,0A31.425,31.425,0,0,0,76.55,119c.139-.765-1.15-4.744-1.421-7.385-.285-2.779-3.166-12.906-1.776-14.365s-7.16-21.472-7.16-21.472-14.483,6.694-15.966,15.96" transform="translate(-0.374 -0.596)" fill="#111"/>
        <path id="パス_2075" data-name="パス 2075" d="M66.015,41.931l1.669,21.282H79.707l1.761-21.282Z" transform="translate(-0.491 -0.33)" fill="#fff"/>
        <path id="パス_2076" data-name="パス 2076" d="M80.645,48.441s4.634,3.706,4.728,8.8-1.061,5.567-3.033,6.675-5.031-6.305-5.031-6.305,2.781-4.077,2.966-5.373-.741-2.223.371-3.8" transform="translate(-0.575 -0.381)" fill="#ffcab3"/>
        <path id="パス_2077" data-name="パス 2077" d="M50,15.987s.556,14.453-2.085,16.538c-3.059,1.668-9.315-.423-10.15-1.253s-8.2-13.061-3.476-17.786S47.222,7.509,50,15.987" transform="translate(-0.243 -0.077)" fill="#ffcab3"/>
        <path id="パス_2078" data-name="パス 2078" d="M27.207,33.338c-1.946,4.514-4.5,6.753-6.153,8.811s18.574,3.816,18.574,3.816l.965-11.811Z" transform="translate(-0.156 -0.262)" fill="#ffcab3"/>
        <path id="パス_2079" data-name="パス 2079" d="M104.606,121.141c3.208,1.23,10.934,1.743,12.9,3.969h0c1.365,1.544,1.741,3.05,0,4.475-5.155,4.221-21.619,1.328-28.13.328-2.654-1.195-1.413-4.417-1.649-6.787,1.65-4,6.167.178,9.481.056,2.6-.1,4.427-2.8,7.393-2.04" transform="translate(-0.652 -0.952)" fill="#333"/>
        <path id="パス_2080" data-name="パス 2080" d="M92.5,143.008c-.74,3.986-8.957,4.34-12.175,3.726-3.185-.605-16.893-9.068-18.1-11.678-1.394-3.019.779-7.954,3.281-8.931s5.283,3,8.69,4.25,5.927-.338,8.759,1.736c3.281,2.4,6.968,7.494,9.541,10.9" transform="translate(-0.459 -0.991)" fill="#333"/>
        <path id="パス_2081" data-name="パス 2081" d="M87.555,137.072c2.044.395,5.406,3.566,4.963,5.953-5.213-5.227-12.4-4.056-18.911-7.388-3.106-1.59-7.249-5.063-9.873-7.494,5.623,1.233,8.733,6.364,14.344,7.985,3.876,1.12,6.488.366,9.478.945" transform="translate(-0.474 -1.007)" fill="#6a6a6a"/>
        <path id="パス_2082" data-name="パス 2082" d="M117.532,125.142c-.076,4.024-6.624,4.871-8.532,4.871s-18.259-1.908-18.259-1.908c-.007-1.716,4.345-1.089,5.5-1.027,7.23.4,14.871,3.279,21.292-1.937" transform="translate(-0.675 -0.984)" fill="#6a6a6a"/>
        <path id="パス_2083" data-name="パス 2083" d="M22.046,39.143s-7.971,5.983-11.308,19.694S7.03,72.736,5.176,75.33-1.312,87.375.356,93.489s12.606,8.895,23.544,7.6a44.7,44.7,0,0,0,18.538-6.3c.556-.37,1.112-9.82,1.3-11.859A7.586,7.586,0,0,1,45.4,79.036c.564-.927,2.047-5.856.749-8.765,9.27,1.538,20.392-.871,20.948-1.058s5.561.742,8.528-.37,4.815-1.734,6.148-2.66c.348-3.229-1.346-13.147-3.622-13.151a41.349,41.349,0,0,1-11.911,1.984c-3.592-.07-10.08-2.665-11.193-3.777s-10.3-7.6-14.607-7.136-6.9,1.2-10.42,0-4.264-4.643-7.971-4.961" transform="translate(0 -0.308)" fill="#4991e5"/>
        <path id="パス_2084" data-name="パス 2084" d="M71.906,38.672s.092-3.521,0-4.354-9.547-2.965-9.918-2.872a1.008,1.008,0,0,0-.649,1.2c.186.556,8.991,1.757,9.176,2.408a25.373,25.373,0,0,1,.093,3.614Z" transform="translate(-0.456 -0.247)" fill="#fff"/>
        <path id="パス_2085" data-name="パス 2085" d="M46.5,16.285s2.92,1.088,4.31,0c.835-3.729-2.224-10.678-4.727-12.067S38.993-1.361,33.154.445s-3.973,3.318-5.92,3.6-2.84-.449-5.482,1.983c-1.561,1.437-5.006,6.115-.973,16.816s1.669,12.508.834,12.925,1.669,1.529,4.867,1.668,3.576-1.1,5.8-1.233,1.807,1.269,4.867,1.678,5.43-3.131,5.43-3.131a27.029,27.029,0,0,1-1.954-5.216c-.9-4.354-1.011-2.959-.826-6.949s4.263-6.115,4.263-6.115.355-2.66,1.05-3.077" transform="translate(-0.14 0)" fill="#362108"/>
        <path id="パス_2086" data-name="パス 2086" d="M66.3,38.729a3.641,3.641,0,0,1-1.182,1.992c.047.6.186,1.76.186,1.76H81.945l.231-1.876s-1.135-.938-1.158-1.876Z" transform="translate(-0.484 -0.305)" fill="#333"/>
        <path id="パス_2087" data-name="パス 2087" d="M1.384,95.537s-1.946,19.179,4.449,24.182,11.818,9.589,22.246,9.311,20.16-10.562,23.08-13.759c0,0,5.006-8.339,7.091-10.146s7.091-7.227,8.759-7.088c2.641,1.668,15.855,19.179,15.71,21.541s11.957-4.586,12.235-6.531c-1.252-2.5-8.332-15.288-10.144-18.9s-7.024-20.012-9.633-21.958-8.635-3.217-12.9-1.512A39.338,39.338,0,0,0,49.817,78.35c-3.405,2.884-6.345,6.076-11.449,10.377-4.883,4.115-11.68,12.045-16.5,12.786S1.384,95.537,1.384,95.537" transform="translate(-0.008 -0.549)" fill="#333"/>
        <rect id="長方形_289" data-name="長方形 289" width="118.027" height="145.981" fill="none"/>
      </g>
      <g id="グループ_1807" data-name="グループ 1807" transform="translate(-7010.611 745.926)">
        <path id="パス_2088" data-name="パス 2088" d="M744.631,509.313c-.021.068-.563.091-.609,1.106s-.363,5.63-.363,5.63a5.2,5.2,0,0,0,.272,1.425c.159.113,1.019-.407,1.356-.655a5.435,5.435,0,0,1,1.335-.7,3.034,3.034,0,0,1,.881-.272,2.648,2.648,0,0,1,.589.113c.067.045.882-.068,1.243.363,0,0-1.017-.047-1.176.113s-.18.5-.518.61-.656-.159-1.177.452-1.041,1.2-1.041,1.2l-.158.363s1.968.066,2.466.044a4.755,4.755,0,0,1,1.358.069c.224.089,1.311-.114,1.786.722,0,0-1.222-.408-1.4-.158s-.227.543-.656.518a7.9,7.9,0,0,1-1.289.025,3.446,3.446,0,0,0-.883-.112,2.686,2.686,0,0,1-1.017.135,3.189,3.189,0,0,0-1.108-.158,2.519,2.519,0,0,1-1.222-.249c-.182-.089-.25.091-.792.159s-.724.068-1.086-.271a1.27,1.27,0,0,1-.565-1.108c.046-.5-.248-.159-.293-.044a2.673,2.673,0,0,1-.748.86c-.338.2-.973.271-1.064.135s-.565.429-.565.429a.566.566,0,0,1-.091-.7c.2-.474.272-.541.429-.632s.636-.454.636-.454a13.558,13.558,0,0,0,1.447-1.605c.089-.271.339-.272.429-.7s.248-.61.136-.836-.18-.522-.362-.522-.972.181-1.063-.429a3.507,3.507,0,0,0-.815-.2s.181-.43,1.041-.454,1.154.023,1.38,0,.361-.111.361-.428v-3.8Z" transform="translate(-698.584 -432.444)" fill="#f4ce6d"/>
        <path id="パス_2089" data-name="パス 2089" d="M729.338,511.143s-.248,5.338-.226,5.653.226.543.678.746a4.883,4.883,0,0,0,1.7.61,2.637,2.637,0,0,0,1.312-.2,1.841,1.841,0,0,1,.859-.249c.294,0,1.606-.023,1.606-.023l-.565.995s-1.334.474-1.449.5a1.99,1.99,0,0,0-.427.272s-.226.066.066.179.589.181.723.633c.43.543.635.859.545,1.017s-.453-.023-.545-.114-.2-.068-.5,0a1.573,1.573,0,0,1-.859-.224c-.226-.091-.405-.272-.723-.227s-.431.182-.814.023a6.066,6.066,0,0,1-.975-.61c-.133-.091-.97-.543-1.039-.724s-.113.136-.678.181-.635-.181-.95-.181-.339.114-.567.385-.5.632-.882.543a.438.438,0,0,0-.565.247c-.023.091-.34-.091-.023-.677a17.834,17.834,0,0,0,.9-1.627,1.912,1.912,0,0,1,.384-.634,2.375,2.375,0,0,1,.181-1.175,5.353,5.353,0,0,0,.294-1.312,24.081,24.081,0,0,0,.136-2.51c-.067-.338-.067-2.713-.067-2.713l2.419-.768Z" transform="translate(-694.169 -432.398)" fill="#f4ce6d"/>
        <path id="パス_2090" data-name="パス 2090" d="M738.334,435.512c-.206-.514-1.435-2.152-1.435-2.972s-1.436-8.3-2.871-10.959a7.377,7.377,0,0,0-.853-3.066l.34-2.668-1.126-6.967-.1-4.4-5.123-1.026-1.792,4.7a26.744,26.744,0,0,0-2.022,3.077c-2.08,2.732-4.986,7-5.384,7.545a25.636,25.636,0,0,0-2.82,6.208c-.628,2.449-.57,2.362-1.226,5.068a46.235,46.235,0,0,1-1.995,5.667c-.285.911-3.048,7.09-3.1,7.4a1.773,1.773,0,0,1-.4.683l-.741-.882s-.741.257-.542.655a23.242,23.242,0,0,0-3.189-2.678,4.111,4.111,0,0,0-2.224-1.566,1.042,1.042,0,0,1-.312-.057c-4.7-1.281-11.509,2.022-15.042,7.12,0,0-5.528,6.918-6.61,12.956,0,0-1.172,8.224-1.172,10.273a48.273,48.273,0,0,0,1.539,12.19c1.536,6.554,5.635,12.6,7.377,13.724a3.522,3.522,0,0,0,4.3-.306c-2.563.306-3.894-1.23-5.33-2.356s-5.225-9.222-5.122-17.619c0,0,1.536-3.175,1.945-4-1.129,2.049,1.229,6.863,1.229,7.785s1.948,3.791,3.179,5.428c.922,1.741,3.176,5.53,5.636,6.761-1.028-.82-2.255-4-2.869-6.043.51.615,1.537.2,1.537.2-.82-.513-1.64-2.766-2.254-4.609a23.356,23.356,0,0,1-.717-5.121,8.886,8.886,0,0,0,1.23,2.766c.716.819,1.536,2.458,2.459,3.482a2.729,2.729,0,0,0,1.844,1.023s1.129,1.231,1.845,1.845,1.331,1.128,1.331,1.128a5.882,5.882,0,0,0-.409-1.639c-.307-.614-3.281-4.1-3.792-5.327s.205-3.38.205-3.38l2.254,3.584,1.025,2.255a27.641,27.641,0,0,0,1.537,3.994c1.024,2.15,4.919,3.382,5.842,3.382-1.536-.208-2.461-1.742-1.949-2.05l.1-1.126c-.819-6.763.922-10.757.922-10.757l-.1,4.916s.307,5.634.307,6.043,1.026.512,1.026.512,2.356,1.229,2.972,1.435.411-.513.206-.82.409-.411.409-.411c.368-.73-.157-2.143-.484-2.889a.885.885,0,0,0,.79.124c1.026-.2,2.255-5.019,2.666-5.735a11.489,11.489,0,0,0,.512-3.177l1.025-.409.406.063c-.072.946.335,1.855.2,2.77a6.434,6.434,0,0,0,.849-2.11,3.825,3.825,0,0,0,.364.707c.057-.216.175-.373.234-.58a8.016,8.016,0,0,0,.092.935,4.341,4.341,0,0,0,.745-1.653,5.6,5.6,0,0,0,.364,1.294,11.471,11.471,0,0,1,.416-1.246,3.4,3.4,0,0,0,.093,1.25,4.545,4.545,0,0,0,.869-2.322,15.366,15.366,0,0,0,.672,1.706c.025-.444.065-.864.12-1.29-.011.078.373.557.412.7a7.91,7.91,0,0,0-.005-.9l1.544.571,1.539-.305.92-.1a7.15,7.15,0,0,0,1.2.326,2.153,2.153,0,0,0,1.664-.214c.512.153,1.528-.6,2.083-.816-.217.264-.108.448-.161.684a2.515,2.515,0,0,1,1.123-.916c-.021.086-.029.226-.048.312.471-.218.821-.683,1.274-.911.032.092.084.185.113.269.128-.2.39-.359.528-.537.009.145.084.326.087.446a4.969,4.969,0,0,0,.656-1.3c-.013.133.015.267.013.39.395-.28.385-.915.683-1.355-.021.241.054.518.032.757a11.708,11.708,0,0,0,.474-1.806c.006.083.01.21.01.306a5.733,5.733,0,0,0,.7-1.919.973.973,0,0,1,.019.2,11.78,11.78,0,0,0,.414-3.14c.1-1.639,1.437-6.658,1.437-8.09a16.13,16.13,0,0,1,1.023-4.1l2.358-4.918A13.386,13.386,0,0,0,738.334,435.512Z" transform="translate(-678.59 -396.807)" fill="#fff"/>
        <path id="パス_2091" data-name="パス 2091" d="M757.083,411.726c.055-.144-.014-.277,0-.415.015-.155.125-.283.142-.439a1.513,1.513,0,0,0-.056-.565,2.608,2.608,0,0,1-.173-.916,4.851,4.851,0,0,0-.033-1.25,2.871,2.871,0,0,0-.257-.828c-.139-.259-.18-.544-.338-.785a2.419,2.419,0,0,0-.483-.505.526.526,0,0,1-.029-.744c.233-.3.451-.629.675-.943a3.077,3.077,0,0,0,.405-.612c.036-.115-.048-.291-.013-.39.048-.133.149-.157.187-.294.058-.21-.009-.265.117-.431.108-.147.214-.214.2-.423a2.06,2.06,0,0,0,.029-.825s-.086-.058-.143-.342-.055-.57-.113-.768.056-.284-.115-.485-.2-.342-.284-.2-.314.34-.314.17a3.946,3.946,0,0,0-.256-.683c-.056-.2-.113-.426-.226-.456a.385.385,0,0,1-.315-.314,2.186,2.186,0,0,0-.313-.568.315.315,0,0,0-.058-.429c-.228-.171-.285-.369-.341-.257s.029.456-.113.486-.342.114-.371-.144-.057-.426-.143-.426a.965.965,0,0,0-.286.114s0-.086-.142-.228-.255-.225-.341-.17-.229-.031-.229-.031a.692.692,0,0,0-.054-.568,1.2,1.2,0,0,1-.257-.457.848.848,0,0,0-.228-.369s-.056-.484-.144-.484-.255-.057-.255.228-.171,1.623-.115,1.851-.171.369-.284-.143a10.912,10.912,0,0,0-.342-1.169,1.7,1.7,0,0,0-.4-.74c-.2-.17-.4-.456-.541-.371s-.086.285-.058.458-.027,1.138-.027,1.308-.058.854-.058.854a7.576,7.576,0,0,0-.6-1.137,6.118,6.118,0,0,1-.741-1.025,2.1,2.1,0,0,0-.426-.629s0-.568-.23-.74-.37,0-.342.4.259,1.538.259,1.538.056,1.764.482,2.107c0,0-.113.257-.512-.285a12.12,12.12,0,0,0-1.425-1.622c-.342-.285-.883-.684-1.054-.8s-.228-.428-.34-.285a.8.8,0,0,0,.056.712,4.083,4.083,0,0,1,.4,1.053,11.825,11.825,0,0,0,.571,1.425s-.086.142-.428-.228a6.3,6.3,0,0,0-1.053-.854c-.171-.114-.227-.315-.4-.4s-.115-.086-.286-.257-.286-.454-.371-.169.141.456.229.624a7.4,7.4,0,0,1,.257.741,7.394,7.394,0,0,0,.626,1.4s-1.054-.827-1.254-.968-.454-.287-.542-.486-.426-.087-.313.143a3.7,3.7,0,0,0,.285.458s.543,1.707.6,1.85.088.371-.171.286-.739-.172-.883-.229-.285-.143-.454-.2-.4-.255-.486-.086.2.4.2.4a.58.58,0,0,1,.342.369,3.7,3.7,0,0,0,.911,1.226c.286.2.57.654.969.939a3.4,3.4,0,0,1,1,1.309,1.311,1.311,0,0,0,1.366.543l-.142.741s.683-.4.768-.687-.255-.17.058-.369a2.255,2.255,0,0,1,.8-.258l-.058-.312a1.61,1.61,0,0,0,.914.029,2.446,2.446,0,0,0,.654,0c.141-.056.2-.2.455-.227a1.757,1.757,0,0,1,.513.027s.91-.17.685-.284a2.45,2.45,0,0,0-.486-.172,1.858,1.858,0,0,1,1.741.419.863.863,0,0,1-.027-.178c.056.035.115.027.161.072a1.284,1.284,0,0,1,.039-.2.742.742,0,0,1,.163.131c.016-.01.019-.029.035-.036.053.231-.065.162-.2.215a2.98,2.98,0,0,0-.547.308.689.689,0,0,0-.286.334c-.029.057-.01.114-.044.155-.069.076-.221.074-.269.141-.068.095-.036.264-.1.372a1.034,1.034,0,0,1-.3.305,2.945,2.945,0,0,0-.678.8,4.39,4.39,0,0,1-.476.777,1.523,1.523,0,0,0-.4,1.047c.033.448.5.777.7,1.157.11.2.06.409.156.6.121.233.317.206.473.356.107.1.046.272.1.394s.1.128.176.216c.146.163.257.4.5.412a.552.552,0,0,0,.318.557,1.491,1.491,0,0,1,.421.469,1.591,1.591,0,0,1,.149.564,3.835,3.835,0,0,0,.49,1.185c.155.326.438.547.6.863.128.251.186.512.307.776a2.118,2.118,0,0,0,.257.539c.094-.078.038-.164.082-.261.07-.136.2-.122.282-.228s.023-.215.064-.313c.065-.155.117-.105.25-.2.076-.06.087-.14.175-.194s.183-.019.274-.119a6.722,6.722,0,0,0,.363-.592c.154-.224.4-.364.556-.582a3.433,3.433,0,0,0,.209-.644C756.779,412.048,757.007,411.93,757.083,411.726Z" transform="translate(-699.93 -393.436)" fill="#e60000"/>
        <path id="パス_2092" data-name="パス 2092" d="M764.882,409.015a3.149,3.149,0,0,0-1.28-1.142c-.228,0-.514.541-.826.4s-.315.6-.315.6a3.284,3.284,0,0,1-.428.258c-.143.054-.938.6-.968.968s.2.226.37.085.741-.058.741-.058l.825-.257a7.489,7.489,0,0,0,1.6-.542c.113-.169-1.6-.169-1.853-.084A5.941,5.941,0,0,1,764.882,409.015Z" transform="translate(-706.335 -398.297)" fill="#ffcd00"/>
        <path id="パス_2093" data-name="パス 2093" d="M758.471,410.074a.655.655,0,1,1-.654-.654A.654.654,0,0,1,758.471,410.074Z" transform="translate(-705.022 -398.818)"/>
        <path id="パス_2094" data-name="パス 2094" d="M754.935,413.786c.236-.174.75-.086.814-.454a.08.08,0,0,0,.039.005c.044-.351.248-.742-.039-1.053a2.47,2.47,0,0,0-.546-.239c.005.023.005.058.013.083-.1,0-.2,0-.3,0,0,.03-.01.072-.005.106-.428.08-.974.167-1.116.68-.034.121,0,.144.029.24.05.155.123.15.2.263.142.21.141.376.458.276-.009.038.013.1.009.135a.83.83,0,0,0,.387-.163C754.885,413.711,754.925,413.748,754.935,413.786Z" transform="translate(-703.885 -399.701)" fill="#fae7bc"/>
      </g>
      <g id="グループ_1808" data-name="グループ 1808" transform="translate(-5653.859 1699.386)">
        <path id="パス_2095" data-name="パス 2095" d="M265.724,263.38,262.24,271.8a11.91,11.91,0,0,0-1.452.194,22.75,22.75,0,0,1-3.2.291,1.4,1.4,0,0,0-.967.291s-.871.1-1.065.676h.968a1.415,1.415,0,0,0,1.453.194,3.216,3.216,0,0,1,1.451,0s-2.516.484-3,1.065a3.361,3.361,0,0,0-1.742.967c-.776.194-1.84,1.065-1.84,1.743,0,0,.774-.484,1.162-.387a1.539,1.539,0,0,0,1.743-.291c.581-.678,2.129-.678,2.614-1.161a8.047,8.047,0,0,0,2.42-.29l.774-.387s.968,0,.968.291c-.291.483-.871,2.032-.291,2.516s.967.87.967.87V277.7l.291-.775.291-.968a4.618,4.618,0,0,0,.581-1.354c0-.387.484-1.065.484-1.356s.484-.483.484-.483.774-.387.678-.774a1.884,1.884,0,0,0-.581-.774l.678-.967.871-1.065.871-.581s.872-.1.872-.58,1.163-1.065,1.163-1.065-1.259-.58-1.744-.1a6.942,6.942,0,0,1-1.452.968l1.743-4.355-.871-.87Z" transform="translate(-218.549 -201.186)" fill="#f7c683"/>
        <path id="パス_2096" data-name="パス 2096" d="M260.206,262.461l-1.259,1.839-2.032,2.709-1.066.194-3.291-.387.677,1.645,1.646-.1-1.838,1.161,1.064,1.258s2.9-.968,3.194-1.161-1.064.773-1.064.773-1.453.678-1.453,1.452c-.483.581.2,1.645.2,1.645l.579-1.161a1.728,1.728,0,0,0,.969-.58,2.829,2.829,0,0,1,1.356-.774,1.381,1.381,0,0,0,.774-.968c.194-.58.193-.773.678-1.064a3.832,3.832,0,0,0,.872-.774l.387-.871.58-1.258,1.549-.773,1.163-.775-.679-.193a.928.928,0,0,0-.773,0l-.388.193,1.064-1.935Z" transform="translate(-218.451 -201.137)" fill="#f7c683"/>
        <path id="パス_2097" data-name="パス 2097" d="M298.635,180.337c0-.871-.969-.871-1.744-1.936a5.1,5.1,0,0,0-2.42-2.515c-1.259-2.129-4.743-2.516-5.614-2.516a4.311,4.311,0,0,0-2.516-1.354c-1.646-1.742-6.487-2.806-11.424-1.259s-12.2,8.806-15.005,11.9a7.55,7.55,0,0,0-2.019.622.83.83,0,0,1-.033-.28,2.536,2.536,0,0,0-1.137.428,1.327,1.327,0,0,1,.541-.7c-.162.023-.315-.068-.532.017a1.241,1.241,0,0,1,.07-.373,2.665,2.665,0,0,0-.476.716c0-.262.005-.523.012-.784-.1.159-.315.273-.423.421-.007-.1-.071-.241-.083-.359-.155.143-.362.214-.474.428a1.173,1.173,0,0,1-.185-.977,1.838,1.838,0,0,0-.3.527,2.981,2.981,0,0,0-.015-.551,2.47,2.47,0,0,0-.346.369,1.017,1.017,0,0,0-.124-.157c0,.22-.167.387-.194.484a3.611,3.611,0,0,1-.311-.893c-.1.371-.419.628-.557,1.026-.08-.2-.24-.341-.317-.545a5.643,5.643,0,0,0-.09.665c-.04-.064-.212-.21-.25-.273-.018.186-.109.289-.14.465a3.528,3.528,0,0,1-.346-.467c-.051.4-.12,1.343-.589,1.339-.1-.377-.2-.769-.323-1.14a.966.966,0,0,0-.187.749,3.222,3.222,0,0,1-.358-.046c-.01.376.055.751-.208,1.043a1.038,1.038,0,0,1-.271-.2,2.617,2.617,0,0,1-.028.284c-.2-.181-.4-.373-.6-.559a2.938,2.938,0,0,0,.017,1.6,1.006,1.006,0,0,1-.679-.237,1.989,1.989,0,0,1,0,.253,2.219,2.219,0,0,1-.816-.546,4.223,4.223,0,0,0,.893,1.331,5.757,5.757,0,0,0-.829.009c.057.053.138.2.224.272a.5.5,0,0,1-.612.308c.163.084.2.239.472.293a2.066,2.066,0,0,1-1.051.58c.129.093.325.369.466.446a.88.88,0,0,0-.662.232,5.037,5.037,0,0,0,.831.953c-.254.028-.463.1-.734.115a2.948,2.948,0,0,1,.786.537,2.8,2.8,0,0,1-.784.43c.164.09.4.335.562.442-.238.088-.421.228-.665.338a3.129,3.129,0,0,0,.475.186,2.761,2.761,0,0,1-.928.588c.169.036.337.213.461.261-.217.249-.572.267-.87.432.155.313.859.433,1.236.559a4.217,4.217,0,0,1-.661.438c.088.035.2.092.274.118-.21.317-.649.345-.853.658.136-.016.324.05.466.035a1.5,1.5,0,0,1-.542.674c.449-.094.867-.18,1.317-.259-.169.187-.36.381-.539.551.125-.082.275-.138.4-.222-.217.42-.61.6-.782,1.016a3.173,3.173,0,0,0,.725-.311,3.594,3.594,0,0,1-.38.826,1.4,1.4,0,0,1,.768-.536c-.068.2-.031.3-.166.458.069-.08.258-.176.356-.267.021.206.021.417.022.627-1.654.79-3.912,1.86-4.844,2.267-1.549.677-4.066,3.387-6.195,4.742a35.01,35.01,0,0,0-6.385,3.1c-3.485,2.032-8.091,9.243-10.75,17.51a8.6,8.6,0,0,1-2.033,3.1l-4.841,2.419-2.808,1.161,1.065,5.805s6.68-2.225,8.228-.1,2.807,1.742,2.807,1.742c.149.133.3.256.452.371,2.643,1.988,5.889,1.473,6.713,1.565a16.014,16.014,0,0,1,2.517.677l-.194-.484c.58.387,2.807.1,2.807.1v-.291c1.066-.1,2.613-.1,3.1-.1a4.769,4.769,0,0,1,1.26.291l-.1-.387a7.454,7.454,0,0,0,1.837-.677l-1.258-.58,1.163.1-1.453-2.129h.775c9.452.444,11.481-4.616,11.891-4.369.011-.054.021-.108.033-.163.375-.067.6.179.955.182.368,0,.509-.222.87-.2a1.5,1.5,0,0,1,1.26.74,6.883,6.883,0,0,1,.011-.732,3.03,3.03,0,0,1,1.05.877,3.135,3.135,0,0,0-.254-1.208.749.749,0,0,1,.645.462c-.04-.3-.067-.522-.089-.809.078.055.243.1.34.156-.456-.268,1.4-1.108,1.476-1.138a3.587,3.587,0,0,0,1.774-1.263,10.929,10.929,0,0,0,1.528-4.244c1.646-.1,7.744-3.484,8.035-5.033,2.324-1.741,2.517-3.386,1.064-4.935a8.659,8.659,0,0,0,1.066-3.87,2.032,2.032,0,0,0,1.161-.194c1.163-1.258.969-4.548.969-4.548l1.163,1.645a7.165,7.165,0,0,0,.194-2.225l.773.1a3.06,3.06,0,0,0,.388-2.419l.678.773.387,1.452a2.742,2.742,0,0,1,.1,1.161,2.278,2.278,0,0,0,.291,1.258l.193,1.258a13.817,13.817,0,0,0,.194,2.323,5.672,5.672,0,0,0-.387,3.1l-1.258,1.838c2.42-1.064,5.325-6.677,5.325-6.677,0,1.839-2.808,7.064-2.808,7.064a30.524,30.524,0,0,0,4.259-6.386l.1.484a10.186,10.186,0,0,0,1.944-3.5c-.066.328-.127.643-.2.984-2.324,10.547-1.936,14.9-1.355,15.772-.774-4.644,2.129-14.031,3.581-19.546s2.323-11.709.871-14.708c1.357-1.839,1.356-3.581,1.743-4.645s-.967-1.451-1.549-1.354l.583-.58c3.871,1.644,3,24.675,2.516,27.481s-.872,10.838,1.258,13.353c-.775-2.516.581-12,1.259-18a59.209,59.209,0,0,0-.1-15.579l.774.871a24.076,24.076,0,0,0-2.323-11.709l.289-.291a7.615,7.615,0,0,0,1.839.871,12.2,12.2,0,0,0,3,1.065c2.227.58,7.067,7.741,7.552,8.9C305.217,187.6,300.57,181.5,298.635,180.337Zm-13.091,24.837a23.908,23.908,0,0,0-1.528-8.678s1.258-2.032,1.451-2.515C285.468,193.981,286.677,197.5,285.544,205.175Z" transform="translate(-204.12 -170.008)" fill="#fff"/>
        <path id="パス_2098" data-name="パス 2098" d="M215.228,257.045c-.1-.581-.291-1.549-1.453-1.258s-2.71,1.452-3,.677-1.547-1.742-1.743-.774.291,2.129-.484,1.838-2.613-2.709-3.581-1.741c-.193.58.871.968.871.968s.678,1.354.484,1.644-2.517-.773-3.1-.871-.774.291-.193.679,2.806,1.644,2.322,2.032-3.678-.194-4.162-.581c-.193.677.581,1.452,1.162,1.548a4.769,4.769,0,0,1,1.161.387s-1.549-.289-1.646.291.873,1.354,1.356,1.354,1.064.58.678.58-.967-.386-.967.1a1.394,1.394,0,0,0,1.451,1.354c-.774.58.484,1.161.968,1.161-.289.774.873.484.873.484a.583.583,0,0,0,.774.483,17.974,17.974,0,0,0,2.905-.483s.1,1.451.774,1.644,1.258.484,1.742-.1.968-.194.968.581,1.065.386,1.259-.872.774-1.451,1.064-1.257.776-.387.581-1.451a3.071,3.071,0,0,0-1.162-1.742,1.31,1.31,0,0,0-1.258-.774,5.491,5.491,0,0,0-1.839.677c-.581-.29-1.646-.387-2.033.291-.1-.484-.678-.484-.678-.484.387-.774.194-1.161.774-1.936a4.689,4.689,0,0,1,3.872-1.934Z" transform="translate(-201.16 -198.72)" fill="#e60000"/>
        <path id="パス_2099" data-name="パス 2099" d="M213.244,272.381a10.086,10.086,0,0,1-1.452,1.451,2.607,2.607,0,0,1-.97.193,1.092,1.092,0,0,1,1.066-.871c-.387-.193-1.355,0-1.453,1.161l-.289.194c-.291-.1-.774-.871-.291-1.355a2.174,2.174,0,0,1,1.065-.58Z" transform="translate(-204.016 -204.477)" fill="#ffcd00"/>
        <path id="パス_2100" data-name="パス 2100" d="M220.011,266.13c-.641.046-1.229-.023-1.654.526a8.64,8.64,0,0,0-.347,1.382c.626-.282.8,1.144,1.441.4.19-.217-.015-.589.284-.872a1.5,1.5,0,0,1,.857-.306c.013-.389-.046-.915-.555-.871C220.021,266.3,220.034,266.22,220.011,266.13Z" transform="translate(-206.829 -202.372)" fill="#f0e8cd"/>
        <path id="パス_2101" data-name="パス 2101" d="M215.6,269.364a.483.483,0,1,1-.483-.484A.483.483,0,0,1,215.6,269.364Z" transform="translate(-205.691 -203.298)"/>
      </g>
    </g>
  </g>
</svg>
