<svg xmlns="http://www.w3.org/2000/svg" xmlns:xlink="http://www.w3.org/1999/xlink" width="1920" height="200" viewBox="0 0 1920 200">
  <defs>
    <clipPath id="clip-path">
      <rect id="長方形_136" data-name="長方形 136" width="1920" height="200" transform="translate(7936 4791)" fill="#fff"/>
    </clipPath>
    <linearGradient id="linear-gradient" x1="0.5" x2="0.5" y2="0.126" gradientUnits="objectBoundingBox">
      <stop offset="0" stop-color="#859756"/>
      <stop offset="1" stop-color="#0a4549"/>
    </linearGradient>
  </defs>
  <g id="deco-3" transform="translate(-7936 -4791)" clip-path="url(#clip-path)">
    <ellipse id="楕円形_48" data-name="楕円形 48" cx="3360" cy="1220" rx="3360" ry="1220" transform="translate(6480 4791)" fill="#063d41"/>
    <ellipse id="楕円形_49" data-name="楕円形 49" cx="3360" cy="1220" rx="3360" ry="1220" transform="translate(4592 4791)" fill="url(#linear-gradient)"/>
    <g id="グループ_1792" data-name="グループ 1792" transform="translate(9395.897 4859.319)">
      <path id="パス_349" data-name="パス 349" d="M749.5,366.853a.913.913,0,0,0-.844-.3,15.715,15.715,0,0,1-2.22-.643,8.878,8.878,0,0,1,2.22-1.111.97.97,0,0,0,.935-.966c.093-.272.816-.272.816-.272-.453-.666-1.569-.241-1.782-.241-.3,0-3.171.723-3.171.723a15.833,15.833,0,0,1-1.9.151c-.21-.058-.453-.634-.634-1.147a13.291,13.291,0,0,1-.3-6.342l-1.812-5.919-1.3,3.775.3,2.326.453,3.8a5.934,5.934,0,0,1,.151.934c0,.3-.814.181-1.027.031a1.38,1.38,0,0,0,1,1.058s-.091,1.087-.091,1.329a1.281,1.281,0,0,0,.241.786c.182.21.183.3.183.3l-.091.817a3.3,3.3,0,0,1-.242.784,1.066,1.066,0,0,0,.03.906,1.5,1.5,0,0,0-.06,1.238c.2.23.6-.573.725-.844a2.044,2.044,0,0,0,.725-.725c.21.181,1.268-.271,1.3-.393.016-.066.152-.136.276-.192l1.3.706,2.627-.031,1.691.031a7.873,7.873,0,0,0,1.358.451C750.615,367.878,749.769,367.094,749.5,366.853Z" transform="translate(-692.408 -283.768)" fill="#f7c683"/>
      <path id="パス_350" data-name="パス 350" d="M754.939,373.081a2.507,2.507,0,0,0-1.147-.09,4.109,4.109,0,0,1-.816.029l-1.116-.24-.484-.333a2.5,2.5,0,0,0,1.088-.393,1.338,1.338,0,0,1,.695-.512c.271-.061.271-.152.573-.182s1.241-.121,1.33-.935c.392-.062.544-.093.544-.093a.628.628,0,0,0-.875-.572l-.363.06a3.278,3.278,0,0,0-1.39.453,5.253,5.253,0,0,1-1.025.394l-.968.332-.514.211-.662-.574a8.354,8.354,0,0,0,.06-1.962c-.121-.635-.212-1.33-.212-1.33a2.353,2.353,0,0,1-.091-.934,7.205,7.205,0,0,0,.394-1.63c0-.485.121-2.147.121-2.147l1.147-1.42-1.871-2.324-2.025.119-1.239.97s1.481,1.569,1.209,3.049-.784,5.043-.784,5.043-.358,1.362-.574,1.942a2.554,2.554,0,0,0-.847.565,2.654,2.654,0,0,1-.784,1c-.332.181-.755.451-.755.664a1.833,1.833,0,0,0-.816,1.812c.091.091.214.091.3-.059s.3-.575.453-.575.123-.06.3.091.755-.06.755-.06a1.182,1.182,0,0,0,.423-.363c.119-.212.3-.544.3-.544l.065-.058c.113.359.358.662.658.662a1.349,1.349,0,0,0,2.113.514c.242.272,1.058.3,1.058.3a1.544,1.544,0,0,0,1.6.3,1.7,1.7,0,0,0,1.328-.182,2.217,2.217,0,0,0,1.207,0,1.233,1.233,0,0,0,.514.091c.424,0,1.238-.031,1.3-.242s1,.151,1,.151A1.338,1.338,0,0,0,754.939,373.081Z" transform="translate(-693.53 -286.493)" fill="#f7c683"/>
      <path id="パス_351" data-name="パス 351" d="M742.5,291.176c-.672-6.6-2.474-7.761-4.124-9.929,0,0-.549-.7-1.742-2.384-1.373-3.086-5.774-7.3-6.873-7.974s-4.155-3.209-4.155-3.209l-.978-.885s-1.133-.763-1.194-1.344-1.956-1.957-2.26-2.2-1.681-1.376-1.681-1.376l-4.962-2.155-2.844,2.311,2.044,5.954v3.554s-.443,1.777-.443,2.044-.445,3.2-.445,3.2l-.446,1.689s-.443,1.867-.71,3.376-1.156,4.175-1.243,4.887,0,.89-.09,1.512a12.224,12.224,0,0,1-1.155,2.4l.443.09-.711,1.066s.356-.267.356.09-1.868,1.955-1.868,1.955l.181.444s-3.467,3.2-4.089,2.4-3.378-2.311-5.422-1.244a7.544,7.544,0,0,0-2.842,1.244c-1.334-.622-4.534-.178-5.511.089a22.488,22.488,0,0,0-9,4.735,13.378,13.378,0,0,0-2.343,2.808c-.692,1.042-1.353,2.266-2.053,3.244-1.879,2.617-3.771,4.993-4.844,8.106a52.435,52.435,0,0,0-2.6,8.832c-1.027,6.895.847,9.777,1.292,10.136a1.344,1.344,0,0,0,.977.263,8,8,0,0,0,.446-1.51c0-.355-.179-3.022-.179-3.022a18.406,18.406,0,0,0,.179-1.864c0-.622-.09-2.49-.09-2.49l.354,1.69.446-2.135.62-1.689.267-.8.268-1.6.531-2.755.179,1.156.265.62.446-2.044s.354,0,.443-.267,1.156-2.31,1.156-2.31l.8.622a3.683,3.683,0,0,0-.355,1.422c0,1.609-.565,2.457-1,3.956a16.3,16.3,0,0,0-.517,2.844c-.139,1.329.411,6.268,2.581,6a27.64,27.64,0,0,0,1.157,5.954s-.267,3.911.711,2.133a4.716,4.716,0,0,0,.22-.476,29.439,29.439,0,0,0,1.47,4.919c0,1.776.886,1.866.886,1.866a5.233,5.233,0,0,0,1.334,3.023s1.156.977,1.6.445,0-1.514,0-2.224-.978-3.463-.8-4.53a30.7,30.7,0,0,0-.355-4.89l.445-.8a20.9,20.9,0,0,0,1.777,2.222A12.564,12.564,0,0,1,687.7,339.7l1.065,1.067,1.5,1.745a30.768,30.768,0,0,1-1.5,4.476,10.506,10.506,0,0,0,2.092-3.861,16.987,16.987,0,0,0,2.53,2.084c.132.082.3.181.481.285.01,1.347.031,2.315.053,2.648.088,1.42-.091,8.352-.091,8.352.405-.809,1.119-4.7,1.553-10.183,1.9.973,4.317,2.07,4.934,2.009a3.5,3.5,0,0,1,1.067.888,3.044,3.044,0,0,0,2.045.8c.62,0,.178-1.334.178-1.687s-.711-.977-.711-1.6a7.223,7.223,0,0,0-.356-1.69l-.09-1.334c.09,1.067,1.778,2.49,1.956,2.847s.71.62.978.172a10.715,10.715,0,0,0,.056-2.549c0,.009,1.207,1.556,1.319,1.64a2.643,2.643,0,0,0,1.468.38l-.264-2.044-.092-1.866.446.177c.583-.667.341-2.493.415-3.341a14.326,14.326,0,0,1,.544-3.318,32.455,32.455,0,0,1,1.656-3.371c.147-.319.255-1.114.4-1.337.046-.069.455-.342.455-.367v-1.506l.534.534,1.51,2.755c-.889-2.224-.09-5.512-.09-5.512l.446.267c0,.8.264,3.466.888,3.911a9.6,9.6,0,0,1-.267-4.709,11.5,11.5,0,0,0,.889,1.6,10.107,10.107,0,0,0,1.955,1.6,19.084,19.084,0,0,1-.888-2.575,51.532,51.532,0,0,1,.177-5.688s.8,4,1.244,5.331,1.6,3.734,2.132,3.824a14.468,14.468,0,0,1-1.421-4l.089-.624.266,1.067.177-.621.179.354.445-.354.265.711.267-.358a6.588,6.588,0,0,0,1.688,2.49l-.711-2.043c.09.533,1.422,1.509,1.422,1.509l-.533-1.956s1.687,1.513,2.222,1.246c0,0,.711.711,1.094.545a2.644,2.644,0,0,0,3.514-.489c.794.213,2.506-.855,2.506-.855l.579-1.039v.336a8.349,8.349,0,0,0,.826-1.376c.031-.245.735-.64.735-.64l.091.3.7-1.009.581-.457-.153.733a3.167,3.167,0,0,0,.4-.766c.184-.488.671-1.4.671-1.4v.4a9.115,9.115,0,0,0,.887-3.087c.275-.64,1.344-2.536,1.04-3.269,0,0,0-1.069-.092-2.413a17.71,17.71,0,0,1,.673-4.126c.123-.642.793-2.626,1.313-5.283a26.324,26.324,0,0,0,1.254-3.515C742.684,298.3,743.174,295.364,742.5,291.176Zm-48.634,50.142a10.768,10.768,0,0,1-1.018-1.264c-.044-.114-.277-.535-.6-1.112.394-1.313.736-2.552.991-3.517.236.248.471.494.718.727C693.91,337.887,693.88,339.67,693.868,341.318Zm3.782,4.246c-.121-.159-1.054-1.185-2.067-2.312.045-.836.084-1.69.112-2.575.032-.981.089-2,.166-3.023a8.745,8.745,0,0,0,1.776.911c.052.8.1,1.589.1,2.377a23.9,23.9,0,0,0,.8,2.846,3.321,3.321,0,0,0,.8,2.222,4.5,4.5,0,0,1,.356.977A14.559,14.559,0,0,1,697.649,345.563Z" transform="translate(-668.594 -253.133)" fill="#fff"/>
      <path id="パス_352" data-name="パス 352" d="M733.247,250.226c0-.337,0-.459-.214-.428s-.4.4-.427.641.062.581-.152.826-.184.824-.184,1.314.03,1.528.03,1.528-.672-1.07-.794-1.374-.55-1.07-.55-1.07-.093-.4-.335-.337a.387.387,0,0,0-.336.4v.734l.06,1.559a.408.408,0,0,1-.275-.215,3.167,3.167,0,0,1-.245-.7c0-.092-.212-.215-.276.06s0,.366-.181.519a2.107,2.107,0,0,0-.459,1.131c0,.336.153.52-.06.52s-.459-.122-.521.091a1.117,1.117,0,0,0,.123.946,1.646,1.646,0,0,0,.307.888.9.9,0,0,0,.3.794c-.245.428.275.978.275.978-.092.153.64.886.64.886l.583,1.222.731.611-.09.428s-.246.826-.429,1.5.033,2.566,1.285,2.749c.153.183.581.123.581.123.273,1.1.794.917.794.917-.488,1.038-.428,1.313-.367,1.406s.521.273.764-.459.671-1.987.671-1.987c.276.153.918-.275,1.01-1.589s.426-1.833.153-2.108a6.759,6.759,0,0,1-.581-.7,2.477,2.477,0,0,0-.549-.581,4.358,4.358,0,0,1-.459-.244,1.55,1.55,0,0,1-.428-.459,2.533,2.533,0,0,0-.7-.7.911.911,0,0,1-.123-.978c.165-.186.413-.182.617-.294.241-.133.384-.382.631-.52,0,.109-.044.21-.053.319.233.044.376-.081.549-.2a2.106,2.106,0,0,0-.147.239,2.918,2.918,0,0,0,1.111-.247.528.528,0,0,1-.178.229c.411-.141,1.163-.3,1.5.013a7.179,7.179,0,0,0,2.2.488,2.154,2.154,0,0,0,2.474-1.068,3.9,3.9,0,0,0,.245-1.346c.275-.366.091-.549-.031-.762a1.337,1.337,0,0,1-.121-.551.148.148,0,0,0-.183-.152,1.167,1.167,0,0,1-.552-.093c-.181-.06-.426-.121-.273-.213a.627.627,0,0,0,.122-.55s.123-.062,0-.275-.213-.151-.336-.275-.245.031-.153-.275a1.872,1.872,0,0,0,.062-.793c-.031-.184-.154-.336-.062-.489s-.029-.4-.245-.214a4.9,4.9,0,0,0-.518.673,6.7,6.7,0,0,1-1.314,1.283c-.336.121-.61.275-.55-.092a4.682,4.682,0,0,0,.06-.672.71.71,0,0,0,.275-.551c.031-.4.125-.795-.03-.886s-.366-.183-.335-.366.09-.642.09-.763.123-.49-.09-.4-.307.307-.49.551a6.925,6.925,0,0,1-1.038,1.1,6.038,6.038,0,0,0-1.222,1.283,1.239,1.239,0,0,1-.4.458l-.3-.581s-.336-1.252-.459-1.527a1.205,1.205,0,0,1-.185-.641A1.506,1.506,0,0,0,733.247,250.226Z" transform="translate(-688.671 -249.793)" fill="#e60000"/>
      <path id="パス_353" data-name="パス 353" d="M734.853,266.127s-.7-.643-.795-.308.582,1.437.888,1.253S735.005,266.278,734.853,266.127Z" transform="translate(-690.614 -255.152)"/>
      <path id="パス_354" data-name="パス 354" d="M730.754,265.337a1.226,1.226,0,0,0,.59-.63,5.419,5.419,0,0,0-.765-.153c-.182,0-.488-.428-.488-.428s-.518-.426-.7-.183a1.663,1.663,0,0,0-.426,1.619.553.553,0,0,0,.1.064C729.285,265.268,729.752,265.071,730.754,265.337Z" transform="translate(-688.876 -254.528)" fill="#ffcd00"/>
      <path id="パス_355" data-name="パス 355" d="M729.9,266.261a.508.508,0,0,0-.141.271.926.926,0,0,0,.6.126,7.665,7.665,0,0,1,.854.151l-.176-.678A2.336,2.336,0,0,0,729.9,266.261Z" transform="translate(-689.169 -255.286)" fill="#ffa400"/>
      <path id="パス_356" data-name="パス 356" d="M738.522,268.788c-.137-.158-.045-.358-.275-.419-.141-.039-.323.076-.474.066-.07,0-.125.014-.2.007a1.16,1.16,0,0,0-.21-.026c-.054-.511-.658.036-.658.281-.2-.02-.236.386-.161.525.052.093.182.155.234.244.022.039-.026.108.005.145.044.056.113.048.153.092s.09,0,.126.027,0,.1.029.127a.725.725,0,0,0,.33.13c.242.058.275.193.512.052.031-.02.056-.1.074-.109.048-.023.115,0,.145-.013.137-.056.129.009.245-.115a2.119,2.119,0,0,0,.342-.511.623.623,0,0,0,.026-.313C738.706,268.809,738.6,268.877,738.522,268.788Z" transform="translate(-691.443 -255.987)" fill="#fae7bc"/>
    </g>
  </g>
</svg>
