<svg xmlns="http://www.w3.org/2000/svg" xmlns:xlink="http://www.w3.org/1999/xlink" width="1920" height="543" viewBox="0 0 1920 543">
  <defs>
    <clipPath id="clip-path">
      <rect id="長方形_260" data-name="長方形 260" width="1920" height="543" transform="translate(0 537)" fill="#fff" stroke="#707070" stroke-width="1"/>
    </clipPath>
    <clipPath id="clip-path-2">
      <rect id="長方形_259" data-name="長方形 259" width="1920" height="2323" transform="translate(-7406 537)" fill="#fff"/>
    </clipPath>
    <clipPath id="clip-path-3">
      <rect id="長方形_257" data-name="長方形 257" width="1828" height="1161" transform="translate(-0.198 0.5)" fill="#fff"/>
    </clipPath>
    <linearGradient id="linear-gradient" x1="0.5" x2="0.5" y2="1" gradientUnits="objectBoundingBox">
      <stop offset="0" stop-color="#859756"/>
      <stop offset="1" stop-color="#0a4549"/>
    </linearGradient>
  </defs>
  <g id="deco-1-1" transform="translate(0 -537)" clip-path="url(#clip-path)">
    <g id="deco-1" transform="translate(7406)" clip-path="url(#clip-path-2)">
      <g id="マスクグループ_28" data-name="マスクグループ 28" transform="translate(-7313.802 1711.5)" clip-path="url(#clip-path-3)">
        <ellipse id="楕円形_92" data-name="楕円形 92" cx="3199" cy="1161.5" rx="3199" ry="1161.5" transform="translate(-1733.198 -1161.5)" fill="#063d41"/>
      </g>
      <ellipse id="楕円形_93" data-name="楕円形 93" cx="3216.5" cy="1168" rx="3216.5" ry="1168" transform="translate(-11114 537)" fill="url(#linear-gradient)"/>
      <g id="me" transform="translate(-9451.021 -2601.782)">
        <path id="パス_2012" data-name="パス 2012" d="M66.659,116.884s0,14.39-.347,14.946,12.374,3.893,14.112,2.851-1.53-4.31-2.642-5.7-2.085-2.085-2.224-4.241-.9-7.3-.695-8.48-8.2.625-8.2.625" transform="translate(2284.527 3243.921)" fill="#ffcab3"/>
        <path id="パス_2013" data-name="パス 2013" d="M92.8,109.538s2.99,7.994,4.8,8.9a28.811,28.811,0,0,0,4.518,2.085c1.4.4,2.92,2.642,2.92,2.642s-13.556,2.441-14.738,2.159-1.321-.7-1.182-1.6-.062-4.38-1.491-5.631-3.1-5.91-3.1-5.91Z" transform="translate(2284.392 3243.968)" fill="#ffcab3"/>
        <path id="パス_2014" data-name="パス 2014" d="M50.226,91.745s5.747,15.016,7.786,17.8,4.264,4.82,4.635,8.157l.37,3.337a22.153,22.153,0,0,0,5.561,0,31.414,31.414,0,0,0,7.971-2.016c.139-.765-1.15-4.746-1.421-7.389-.285-2.78-3.166-12.911-1.776-14.371s-7.16-21.481-7.16-21.481-14.483,6.7-15.966,15.966" transform="translate(2284.647 3244.219)" fill="#111"/>
        <path id="パス_2015" data-name="パス 2015" d="M66.015,41.931l1.669,21.292H79.707l1.761-21.292Z" transform="translate(2284.529 3244.471)" fill="#fff"/>
        <path id="パス_2016" data-name="パス 2016" d="M80.645,48.441s4.634,3.707,4.728,8.806-1.061,5.569-3.033,6.678-5.031-6.308-5.031-6.308,2.781-4.078,2.966-5.376-.741-2.224.371-3.8" transform="translate(2284.446 3244.422)" fill="#ffcab3"/>
        <path id="パス_2017" data-name="パス 2017" d="M50,15.989s.556,14.46-2.085,16.545c-3.059,1.668-9.315-.423-10.15-1.254s-8.2-13.067-3.476-17.794S47.222,7.508,50,15.989" transform="translate(2284.777 3244.71)" fill="#ffcab3"/>
        <path id="パス_2018" data-name="パス 2018" d="M27.207,33.338c-1.946,4.516-4.5,6.756-6.153,8.815S39.628,45.97,39.628,45.97l.965-11.816Z" transform="translate(2284.865 3244.535)" fill="#ffcab3"/>
        <path id="パス_2019" data-name="パス 2019" d="M104.606,121.141c3.208,1.231,10.934,1.744,12.9,3.97h0c1.365,1.544,1.741,3.051,0,4.476-5.155,4.222-21.619,1.328-28.13.329-2.654-1.2-1.413-4.419-1.649-6.79,1.65-4,6.167.178,9.481.056,2.6-.1,4.427-2.8,7.393-2.041" transform="translate(2284.369 3243.883)" fill="#333"/>
        <path id="パス_2020" data-name="パス 2020" d="M92.5,143.015c-.74,3.988-8.957,4.341-12.175,3.728-3.185-.605-16.893-9.072-18.1-11.683-1.394-3.02.779-7.957,3.281-8.935s5.283,3,8.69,4.252,5.927-.338,8.759,1.737c3.281,2.4,6.968,7.5,9.541,10.9" transform="translate(2284.561 3243.846)" fill="#333"/>
        <path id="パス_2021" data-name="パス 2021" d="M87.555,137.076c2.044.4,5.406,3.567,4.963,5.955-5.213-5.229-12.4-4.058-18.911-7.392-3.106-1.591-7.249-5.065-9.873-7.5,5.623,1.234,8.733,6.366,14.344,7.988,3.876,1.121,6.488.366,9.478.945" transform="translate(2284.546 3243.83)" fill="#6a6a6a"/>
        <path id="パス_2022" data-name="パス 2022" d="M117.532,125.142c-.076,4.026-6.624,4.874-8.532,4.874s-18.259-1.909-18.259-1.909c-.007-1.717,4.345-1.09,5.5-1.027,7.23.4,14.871,3.28,21.292-1.937" transform="translate(2284.345 3243.852)" fill="#6a6a6a"/>
        <path id="パス_2023" data-name="パス 2023" d="M22.046,39.143s-7.971,5.985-11.308,19.7-3.707,13.9-5.561,16.5S-1.312,87.4.356,93.513s12.606,8.9,23.544,7.6a44.686,44.686,0,0,0,18.538-6.3c.556-.37,1.112-9.824,1.3-11.864A7.591,7.591,0,0,1,45.4,79.053c.564-.927,2.047-5.858.749-8.768,9.27,1.538,20.392-.871,20.948-1.058s5.561.742,8.528-.37,4.815-1.735,6.148-2.661c.348-3.231-1.346-13.152-3.622-13.156a41.333,41.333,0,0,1-11.911,1.985c-3.592-.07-10.08-2.666-11.193-3.779s-10.3-7.606-14.607-7.14-6.9,1.2-10.42,0-4.264-4.645-7.971-4.963" transform="translate(2285.02 3244.491)" fill="#4991e5"/>
        <path id="パス_2024" data-name="パス 2024" d="M71.906,38.675s.092-3.523,0-4.356-9.547-2.966-9.918-2.873a1.009,1.009,0,0,0-.649,1.2c.186.556,8.991,1.758,9.176,2.409a25.4,25.4,0,0,1,.093,3.616Z" transform="translate(2284.564 3244.549)" fill="#fff"/>
        <path id="パス_2025" data-name="パス 2025" d="M46.5,16.292s2.92,1.089,4.31,0c.835-3.731-2.224-10.683-4.727-12.073S38.993-1.362,33.154.446s-3.973,3.319-5.92,3.6-2.84-.45-5.482,1.984c-1.561,1.437-5.006,6.117-.973,16.823s1.669,12.513.834,12.93,1.669,1.53,4.867,1.669,3.576-1.1,5.8-1.234,1.807,1.269,4.867,1.678,5.43-3.133,5.43-3.133a27.048,27.048,0,0,1-1.954-5.218c-.9-4.356-1.011-2.96-.826-6.952s4.263-6.117,4.263-6.117.355-2.661,1.05-3.078" transform="translate(2284.88 3244.782)" fill="#362108"/>
        <path id="パス_2026" data-name="パス 2026" d="M66.3,38.729a3.643,3.643,0,0,1-1.182,1.993c.047.6.186,1.761.186,1.761H81.945l.231-1.877s-1.135-.938-1.158-1.877Z" transform="translate(2284.536 3244.494)" fill="#333"/>
        <path id="パス_2027" data-name="パス 2027" d="M1.384,95.548S-.563,114.735,5.833,119.74s11.818,9.593,22.246,9.315,20.16-10.567,23.08-13.765c0,0,5.006-8.343,7.091-10.15s7.091-7.23,8.759-7.091c2.641,1.669,15.855,19.187,15.71,21.551s11.957-4.588,12.235-6.534c-1.252-2.5-8.332-15.294-10.144-18.909S77.787,74.136,75.178,72.19s-8.635-3.219-12.9-1.513a39.335,39.335,0,0,0-12.465,7.676c-3.405,2.885-6.345,6.078-11.449,10.381-4.883,4.117-11.68,12.05-16.5,12.791S1.384,95.548,1.384,95.548" transform="translate(2285.012 3244.263)" fill="#333"/>
        <rect id="長方形_258" data-name="長方形 258" width="118.027" height="146.044" transform="translate(2285.02 3244.782)" fill="none"/>
      </g>
      <g id="グループ_1803" data-name="グループ 1803" transform="translate(-7010.611 746.016)">
        <path id="パス_2028" data-name="パス 2028" d="M744.631,509.313c-.021.068-.563.091-.609,1.107s-.363,5.633-.363,5.633a5.2,5.2,0,0,0,.272,1.426c.159.113,1.019-.407,1.356-.656a5.435,5.435,0,0,1,1.335-.7,3.033,3.033,0,0,1,.881-.272,2.648,2.648,0,0,1,.589.113c.067.045.882-.068,1.243.363,0,0-1.017-.047-1.176.113s-.18.5-.518.61-.656-.159-1.177.453-1.041,1.2-1.041,1.2l-.158.363s1.968.066,2.466.044a4.752,4.752,0,0,1,1.358.069c.224.089,1.311-.114,1.786.723,0,0-1.222-.408-1.4-.158s-.227.543-.656.518a7.891,7.891,0,0,1-1.289.025,3.443,3.443,0,0,0-.883-.112,2.686,2.686,0,0,1-1.017.135,3.187,3.187,0,0,0-1.108-.159,2.518,2.518,0,0,1-1.222-.249c-.182-.089-.25.091-.792.159s-.724.068-1.086-.271a1.271,1.271,0,0,1-.565-1.109c.046-.5-.248-.159-.293-.044a2.674,2.674,0,0,1-.748.861c-.338.2-.973.271-1.064.135s-.565.429-.565.429a.567.567,0,0,1-.091-.7c.2-.474.272-.542.429-.632s.636-.454.636-.454a13.561,13.561,0,0,0,1.447-1.606c.089-.271.339-.272.429-.7s.248-.61.136-.836-.18-.522-.362-.522-.972.181-1.063-.429a3.508,3.508,0,0,0-.815-.2s.181-.431,1.041-.454,1.154.023,1.38,0,.361-.111.361-.429v-3.8Z" transform="translate(-698.584 -432.411)" fill="#f4ce6d"/>
        <path id="パス_2029" data-name="パス 2029" d="M729.338,511.143s-.248,5.34-.226,5.655.226.543.678.747a4.881,4.881,0,0,0,1.7.611,2.635,2.635,0,0,0,1.312-.2,1.841,1.841,0,0,1,.859-.249c.294,0,1.606-.023,1.606-.023l-.565,1s-1.334.474-1.449.5a1.989,1.989,0,0,0-.427.272s-.226.066.066.179.589.181.723.634c.43.543.635.859.545,1.017s-.453-.023-.545-.114-.2-.068-.5,0a1.572,1.572,0,0,1-.859-.224c-.226-.091-.405-.272-.723-.227s-.431.182-.814.023a6.067,6.067,0,0,1-.975-.61c-.133-.091-.97-.543-1.039-.725s-.113.136-.678.181-.635-.181-.95-.181-.339.114-.567.385-.5.632-.882.543a.437.437,0,0,0-.565.248c-.023.091-.34-.091-.023-.678a17.844,17.844,0,0,0,.9-1.628,1.913,1.913,0,0,1,.384-.634,2.377,2.377,0,0,1,.181-1.176,5.357,5.357,0,0,0,.294-1.313,24.1,24.1,0,0,0,.136-2.511c-.067-.338-.067-2.714-.067-2.714l2.419-.768Z" transform="translate(-694.169 -432.365)" fill="#f4ce6d"/>
        <path id="パス_2030" data-name="パス 2030" d="M738.334,435.526c-.206-.514-1.435-2.153-1.435-2.973s-1.436-8.3-2.871-10.964a7.382,7.382,0,0,0-.853-3.068l.34-2.67-1.126-6.97-.1-4.406-5.123-1.027-1.792,4.7a26.755,26.755,0,0,0-2.022,3.078c-2.08,2.733-4.986,7.008-5.384,7.548a25.652,25.652,0,0,0-2.82,6.211c-.628,2.45-.57,2.363-1.226,5.071a46.268,46.268,0,0,1-1.995,5.669c-.285.911-3.048,7.093-3.1,7.407a1.774,1.774,0,0,1-.4.683l-.741-.883s-.741.257-.542.656a23.244,23.244,0,0,0-3.189-2.679,4.111,4.111,0,0,0-2.224-1.567,1.042,1.042,0,0,1-.312-.057c-4.7-1.282-11.509,2.023-15.042,7.123,0,0-5.528,6.921-6.61,12.961,0,0-1.172,8.227-1.172,10.278a48.314,48.314,0,0,0,1.539,12.195c1.536,6.557,5.635,12.6,7.377,13.73a3.521,3.521,0,0,0,4.3-.306c-2.563.306-3.894-1.231-5.33-2.357s-5.225-9.226-5.122-17.627c0,0,1.536-3.177,1.945-4-1.129,2.05,1.229,6.866,1.229,7.788s1.948,3.792,3.179,5.431c.922,1.742,3.176,5.532,5.636,6.764-1.028-.82-2.255-4-2.869-6.046.51.615,1.537.2,1.537.2-.82-.513-1.64-2.767-2.254-4.611a23.376,23.376,0,0,1-.717-5.124,8.892,8.892,0,0,0,1.23,2.767c.716.82,1.536,2.459,2.459,3.484a2.728,2.728,0,0,0,1.844,1.024s1.129,1.232,1.845,1.845,1.331,1.128,1.331,1.128a5.887,5.887,0,0,0-.409-1.64c-.307-.615-3.281-4.1-3.792-5.329s.205-3.382.205-3.382l2.254,3.586,1.025,2.256a27.66,27.66,0,0,0,1.537,4c1.024,2.151,4.919,3.383,5.842,3.383-1.536-.208-2.461-1.743-1.949-2.05l.1-1.126c-.819-6.766.922-10.761.922-10.761l-.1,4.919s.307,5.637.307,6.046,1.026.512,1.026.512,2.356,1.23,2.972,1.436.411-.514.206-.82.409-.411.409-.411c.368-.731-.157-2.143-.484-2.89a.885.885,0,0,0,.79.124c1.026-.2,2.255-5.021,2.666-5.737a11.5,11.5,0,0,0,.512-3.178l1.025-.409.406.063c-.072.946.335,1.856.2,2.771a6.439,6.439,0,0,0,.849-2.111,3.828,3.828,0,0,0,.364.707c.057-.216.175-.373.234-.581a8.023,8.023,0,0,0,.092.936,4.343,4.343,0,0,0,.745-1.654,5.609,5.609,0,0,0,.364,1.295,11.479,11.479,0,0,1,.416-1.247,3.4,3.4,0,0,0,.093,1.251,4.548,4.548,0,0,0,.869-2.323,15.376,15.376,0,0,0,.672,1.707c.025-.445.065-.864.12-1.291-.011.078.373.557.412.7a7.917,7.917,0,0,0-.005-.9l1.544.571,1.539-.305.92-.1a7.148,7.148,0,0,0,1.2.326,2.152,2.152,0,0,0,1.664-.214c.512.153,1.528-.6,2.083-.816-.217.264-.108.449-.161.684a2.515,2.515,0,0,1,1.123-.916c-.021.086-.029.226-.048.313.471-.218.821-.683,1.274-.911.032.092.084.185.113.269.128-.2.39-.359.528-.537.009.145.084.326.087.446a4.972,4.972,0,0,0,.656-1.3c-.013.133.015.267.013.39.395-.28.385-.915.683-1.356-.021.241.054.518.032.757a11.717,11.717,0,0,0,.474-1.807c.006.083.01.21.01.306a5.738,5.738,0,0,0,.7-1.92.974.974,0,0,1,.019.2,11.79,11.79,0,0,0,.414-3.141c.1-1.64,1.437-6.661,1.437-8.094a16.142,16.142,0,0,1,1.023-4.1l2.358-4.92A13.4,13.4,0,0,0,738.334,435.526Z" transform="translate(-678.59 -396.805)" fill="#fff"/>
        <path id="パス_2031" data-name="パス 2031" d="M757.083,411.734c.055-.144-.014-.277,0-.415.015-.155.125-.283.142-.439a1.515,1.515,0,0,0-.056-.565A2.61,2.61,0,0,1,757,409.4a4.855,4.855,0,0,0-.033-1.251,2.873,2.873,0,0,0-.257-.828c-.139-.259-.18-.544-.338-.785a2.42,2.42,0,0,0-.483-.506.526.526,0,0,1-.029-.744c.233-.3.451-.63.675-.944a3.078,3.078,0,0,0,.405-.612c.036-.115-.048-.291-.013-.39.048-.133.149-.157.187-.294.058-.21-.009-.265.117-.431.108-.147.214-.214.2-.423a2.062,2.062,0,0,0,.029-.826s-.086-.058-.143-.342-.055-.57-.113-.768.056-.284-.115-.485-.2-.342-.284-.2-.314.34-.314.171a3.949,3.949,0,0,0-.256-.683c-.056-.2-.113-.426-.226-.456a.385.385,0,0,1-.315-.314,2.187,2.187,0,0,0-.313-.569.315.315,0,0,0-.058-.429c-.228-.171-.285-.37-.341-.257s.029.457-.113.486-.342.114-.371-.144-.057-.427-.143-.427a.965.965,0,0,0-.286.114s0-.086-.142-.228-.255-.226-.341-.17-.229-.031-.229-.031a.693.693,0,0,0-.054-.568,1.2,1.2,0,0,1-.257-.457.848.848,0,0,0-.228-.37s-.056-.484-.144-.484-.255-.057-.255.228-.171,1.624-.115,1.852-.171.369-.284-.143a10.92,10.92,0,0,0-.342-1.169,1.7,1.7,0,0,0-.4-.74c-.2-.17-.4-.457-.541-.371s-.086.285-.058.458-.027,1.139-.027,1.309-.058.854-.058.854a7.581,7.581,0,0,0-.6-1.137,6.121,6.121,0,0,1-.741-1.025,2.1,2.1,0,0,0-.426-.629s0-.569-.23-.74-.37,0-.342.4.259,1.538.259,1.538.056,1.765.482,2.108c0,0-.113.257-.512-.285a12.123,12.123,0,0,0-1.425-1.622c-.342-.285-.883-.684-1.054-.8s-.228-.428-.34-.285a.8.8,0,0,0,.056.713,4.087,4.087,0,0,1,.4,1.054,11.832,11.832,0,0,0,.571,1.426s-.086.142-.428-.228a6.3,6.3,0,0,0-1.053-.854c-.171-.114-.227-.315-.4-.4s-.115-.086-.286-.257-.286-.455-.371-.169.141.456.229.624a7.4,7.4,0,0,1,.257.741,7.4,7.4,0,0,0,.626,1.4s-1.054-.827-1.254-.968-.454-.287-.542-.486-.426-.087-.313.143a3.7,3.7,0,0,0,.285.458s.543,1.708.6,1.851.088.372-.171.286-.739-.173-.883-.229-.285-.143-.454-.2-.4-.255-.486-.086.2.4.2.4a.58.58,0,0,1,.342.37,3.7,3.7,0,0,0,.911,1.226c.286.2.57.654.969.94a3.4,3.4,0,0,1,1,1.31,1.311,1.311,0,0,0,1.366.543l-.142.741s.683-.4.768-.687-.255-.17.058-.37a2.255,2.255,0,0,1,.8-.258l-.058-.312a1.609,1.609,0,0,0,.914.029,2.445,2.445,0,0,0,.654,0c.141-.056.2-.2.455-.227a1.756,1.756,0,0,1,.513.027s.91-.17.685-.284a2.448,2.448,0,0,0-.486-.173,1.858,1.858,0,0,1,1.741.419.863.863,0,0,1-.027-.179c.056.035.115.027.161.072a1.285,1.285,0,0,1,.039-.2.742.742,0,0,1,.163.131c.016-.01.019-.029.035-.036.053.232-.065.162-.2.215a2.979,2.979,0,0,0-.547.309.689.689,0,0,0-.286.334c-.029.057-.01.114-.044.155-.069.076-.221.074-.269.141-.068.095-.036.264-.1.372a1.034,1.034,0,0,1-.3.305,2.946,2.946,0,0,0-.678.8,4.394,4.394,0,0,1-.476.778,1.524,1.524,0,0,0-.4,1.047c.033.449.5.778.7,1.158.11.2.06.409.156.6.121.233.317.206.473.356.107.1.046.272.1.394s.1.128.176.216c.146.163.257.4.5.412a.552.552,0,0,0,.318.557,1.491,1.491,0,0,1,.421.469,1.593,1.593,0,0,1,.149.565,3.837,3.837,0,0,0,.49,1.186c.155.326.438.547.6.863.128.251.186.512.307.776a2.12,2.12,0,0,0,.257.539c.094-.078.038-.165.082-.261.07-.136.2-.122.282-.228s.023-.215.064-.313c.065-.155.117-.105.25-.205.076-.06.087-.14.175-.194s.183-.019.274-.119a6.726,6.726,0,0,0,.363-.592c.154-.224.4-.364.556-.582a3.434,3.434,0,0,0,.209-.644C756.779,412.056,757.007,411.938,757.083,411.734Z" transform="translate(-699.93 -393.436)" fill="#e60000"/>
        <path id="パス_2032" data-name="パス 2032" d="M764.882,409.015a3.15,3.15,0,0,0-1.28-1.142c-.228,0-.514.542-.826.4s-.315.6-.315.6a3.284,3.284,0,0,1-.428.258c-.143.054-.938.6-.968.968s.2.226.37.085.741-.058.741-.058l.825-.257a7.487,7.487,0,0,0,1.6-.542c.113-.169-1.6-.169-1.853-.084A5.939,5.939,0,0,1,764.882,409.015Z" transform="translate(-706.335 -398.293)" fill="#ffcd00"/>
        <path id="パス_2033" data-name="パス 2033" d="M758.471,410.074a.655.655,0,1,1-.654-.654A.655.655,0,0,1,758.471,410.074Z" transform="translate(-705.022 -398.813)"/>
        <path id="パス_2034" data-name="パス 2034" d="M754.935,413.787c.236-.174.75-.086.814-.454a.08.08,0,0,0,.039.005c.044-.351.248-.743-.039-1.054a2.471,2.471,0,0,0-.546-.24c.005.023.005.058.013.083-.1,0-.2,0-.3,0,0,.03-.01.072-.005.106-.428.08-.974.167-1.116.68-.034.121,0,.144.029.24.05.155.123.15.2.263.142.21.141.376.458.276-.009.038.013.1.009.135a.83.83,0,0,0,.387-.163C754.885,413.712,754.925,413.749,754.935,413.787Z" transform="translate(-703.885 -399.696)" fill="#fae7bc"/>
      </g>
      <g id="グループ_1804" data-name="グループ 1804" transform="translate(-5653.859 1699.887)">
        <path id="パス_2035" data-name="パス 2035" d="M265.724,263.381,262.24,271.8a11.9,11.9,0,0,0-1.452.194,22.744,22.744,0,0,1-3.2.291,1.4,1.4,0,0,0-.967.291s-.871.1-1.065.676h.968a1.414,1.414,0,0,0,1.453.194,3.214,3.214,0,0,1,1.451,0s-2.516.484-3,1.065a3.36,3.36,0,0,0-1.742.968c-.776.194-1.84,1.065-1.84,1.743,0,0,.774-.484,1.162-.387a1.538,1.538,0,0,0,1.743-.291c.581-.678,2.129-.678,2.614-1.162a8.043,8.043,0,0,0,2.42-.29l.774-.388s.968,0,.968.291c-.291.483-.871,2.033-.291,2.517s.967.871.967.871v-.677l.291-.775.291-.968a4.621,4.621,0,0,0,.581-1.355c0-.388.484-1.066.484-1.356s.484-.483.484-.483.774-.387.678-.774a1.885,1.885,0,0,0-.581-.774l.678-.967.871-1.066.871-.581s.872-.1.872-.58,1.163-1.065,1.163-1.065-1.259-.581-1.744-.1a6.942,6.942,0,0,1-1.452.968l1.743-4.356-.871-.871Z" transform="translate(-218.549 -201.159)" fill="#f7c683"/>
        <path id="パス_2036" data-name="パス 2036" d="M260.206,262.461l-1.259,1.839-2.032,2.71-1.066.194-3.291-.388.677,1.646,1.646-.1-1.838,1.161,1.064,1.259s2.9-.968,3.194-1.161-1.064.774-1.064.774-1.453.678-1.453,1.453c-.483.581.2,1.646.2,1.646l.579-1.162a1.727,1.727,0,0,0,.969-.581,2.829,2.829,0,0,1,1.356-.774,1.382,1.382,0,0,0,.774-.968c.194-.581.193-.774.678-1.064a3.833,3.833,0,0,0,.872-.774l.387-.871.58-1.259,1.549-.774,1.163-.775-.679-.193a.928.928,0,0,0-.773,0l-.388.193,1.064-1.936Z" transform="translate(-218.451 -201.11)" fill="#f7c683"/>
        <path id="パス_2037" data-name="パス 2037" d="M298.635,180.342c0-.871-.969-.871-1.744-1.936a5.1,5.1,0,0,0-2.42-2.516c-1.259-2.13-4.743-2.517-5.614-2.517a4.31,4.31,0,0,0-2.516-1.355c-1.646-1.743-6.487-2.808-11.424-1.26s-12.2,8.81-15.005,11.908a7.547,7.547,0,0,0-2.019.622.831.831,0,0,1-.033-.28,2.535,2.535,0,0,0-1.137.428,1.328,1.328,0,0,1,.541-.7c-.162.023-.315-.068-.532.017a1.242,1.242,0,0,1,.07-.374,2.667,2.667,0,0,0-.476.717c0-.262.005-.524.012-.784-.1.159-.315.273-.423.421-.007-.1-.071-.241-.083-.359-.155.143-.362.214-.474.429a1.174,1.174,0,0,1-.185-.977,1.839,1.839,0,0,0-.3.528,2.984,2.984,0,0,0-.015-.551,2.471,2.471,0,0,0-.346.37,1.018,1.018,0,0,0-.124-.157c0,.22-.167.387-.194.484a3.614,3.614,0,0,1-.311-.893c-.1.372-.419.628-.557,1.027-.08-.2-.24-.341-.317-.545a5.647,5.647,0,0,0-.09.666c-.04-.064-.212-.21-.25-.273-.018.186-.109.289-.14.465a3.53,3.53,0,0,1-.346-.467c-.051.4-.12,1.344-.589,1.339-.1-.378-.2-.769-.323-1.14a.967.967,0,0,0-.187.749,3.219,3.219,0,0,1-.358-.046c-.01.376.055.751-.208,1.043a1.038,1.038,0,0,1-.271-.2,2.619,2.619,0,0,1-.028.284c-.2-.181-.4-.373-.6-.559a2.94,2.94,0,0,0,.017,1.6,1.006,1.006,0,0,1-.679-.237,1.99,1.99,0,0,1,0,.253,2.219,2.219,0,0,1-.816-.546,4.225,4.225,0,0,0,.893,1.332,5.757,5.757,0,0,0-.829.009c.057.053.138.2.224.272a.5.5,0,0,1-.612.309c.163.084.2.239.472.293a2.066,2.066,0,0,1-1.051.58c.129.093.325.37.466.447a.88.88,0,0,0-.662.232,5.038,5.038,0,0,0,.831.953c-.254.028-.463.1-.734.115a2.948,2.948,0,0,1,.786.537,2.8,2.8,0,0,1-.784.43c.164.09.4.335.562.442-.238.088-.421.228-.665.338a3.126,3.126,0,0,0,.475.186,2.761,2.761,0,0,1-.928.589c.169.036.337.213.461.261-.217.25-.572.267-.87.433.155.313.859.433,1.236.559a4.217,4.217,0,0,1-.661.439c.088.035.2.092.274.118-.21.317-.649.345-.853.658.136-.016.324.05.466.035a1.5,1.5,0,0,1-.542.674c.449-.094.867-.18,1.317-.259-.169.187-.36.382-.539.551.125-.082.275-.138.4-.222-.217.42-.61.6-.782,1.016a3.172,3.172,0,0,0,.725-.311,3.6,3.6,0,0,1-.38.826,1.4,1.4,0,0,1,.768-.536c-.068.2-.031.3-.166.459.069-.08.258-.176.356-.267.021.206.021.417.022.628-1.654.79-3.912,1.861-4.844,2.268-1.549.678-4.066,3.388-6.195,4.744a35,35,0,0,0-6.385,3.1c-3.485,2.033-8.091,9.246-10.75,17.518a8.6,8.6,0,0,1-2.033,3.1l-4.841,2.42-2.808,1.162,1.065,5.808s6.68-2.226,8.228-.1,2.807,1.743,2.807,1.743c.149.133.3.256.452.371,2.643,1.989,5.889,1.474,6.713,1.565a16.008,16.008,0,0,1,2.517.678l-.194-.484c.58.388,2.807.1,2.807.1v-.291c1.066-.1,2.613-.1,3.1-.1a4.768,4.768,0,0,1,1.26.291l-.1-.388a7.452,7.452,0,0,0,1.837-.678l-1.258-.581,1.163.1-1.453-2.129h.775c9.452.444,11.481-4.618,11.891-4.37.011-.054.021-.108.033-.163.375-.067.6.179.955.182.368,0,.509-.222.87-.2a1.5,1.5,0,0,1,1.26.74,6.889,6.889,0,0,1,.011-.732,3.03,3.03,0,0,1,1.05.877,3.137,3.137,0,0,0-.254-1.208.749.749,0,0,1,.645.462c-.04-.3-.067-.522-.089-.81.078.055.243.1.34.156-.456-.268,1.4-1.108,1.476-1.139a3.587,3.587,0,0,0,1.774-1.263,10.937,10.937,0,0,0,1.528-4.246c1.646-.1,7.744-3.486,8.035-5.035,2.324-1.742,2.517-3.388,1.064-4.937a8.666,8.666,0,0,0,1.066-3.871,2.031,2.031,0,0,0,1.161-.194c1.163-1.258.969-4.55.969-4.55l1.163,1.646a7.171,7.171,0,0,0,.194-2.226l.773.1a3.062,3.062,0,0,0,.388-2.42l.678.774.387,1.453a2.745,2.745,0,0,1,.1,1.161,2.279,2.279,0,0,0,.291,1.259l.193,1.258a13.829,13.829,0,0,0,.194,2.324,5.677,5.677,0,0,0-.387,3.1l-1.258,1.839c2.42-1.064,5.325-6.68,5.325-6.68,0,1.839-2.808,7.067-2.808,7.067a30.538,30.538,0,0,0,4.259-6.389l.1.484a10.192,10.192,0,0,0,1.944-3.5c-.066.328-.127.644-.2.984-2.324,10.551-1.936,14.908-1.355,15.779-.774-4.646,2.129-14.037,3.581-19.555s2.323-11.714.871-14.714c1.357-1.839,1.356-3.582,1.743-4.647s-.967-1.451-1.549-1.355l.583-.581c3.871,1.645,3,24.686,2.516,27.493s-.872,10.842,1.258,13.359c-.775-2.517.581-12,1.259-18.006a59.26,59.26,0,0,0-.1-15.586l.774.871a24.1,24.1,0,0,0-2.323-11.714l.289-.291a7.613,7.613,0,0,0,1.839.871,12.192,12.192,0,0,0,3,1.065c2.227.581,7.067,7.744,7.552,8.906C305.217,187.6,300.57,181.5,298.635,180.342ZM285.544,205.19a23.928,23.928,0,0,0-1.528-8.682s1.258-2.033,1.451-2.516C285.468,193.992,286.677,197.507,285.544,205.19Z" transform="translate(-204.12 -170.008)" fill="#fff"/>
        <path id="パス_2038" data-name="パス 2038" d="M215.228,257.046c-.1-.581-.291-1.55-1.453-1.259s-2.71,1.453-3,.678-1.547-1.743-1.743-.774.291,2.129-.484,1.839-2.613-2.71-3.581-1.742c-.193.581.871.968.871.968s.678,1.354.484,1.645-2.517-.774-3.1-.871-.774.291-.193.679,2.806,1.645,2.322,2.033-3.678-.194-4.162-.581c-.193.678.581,1.453,1.162,1.549a4.768,4.768,0,0,1,1.161.387s-1.549-.289-1.646.291.873,1.354,1.356,1.354,1.064.581.678.581-.967-.386-.967.1a1.394,1.394,0,0,0,1.451,1.355c-.774.581.484,1.162.968,1.162-.289.774.873.484.873.484a.583.583,0,0,0,.774.483,17.968,17.968,0,0,0,2.905-.483s.1,1.451.774,1.645,1.258.484,1.742-.1.968-.194.968.581,1.065.386,1.259-.872.774-1.451,1.064-1.258.776-.388.581-1.452a3.072,3.072,0,0,0-1.162-1.743,1.31,1.31,0,0,0-1.258-.774,5.489,5.489,0,0,0-1.839.678c-.581-.29-1.646-.387-2.033.291-.1-.484-.678-.484-.678-.484.387-.774.194-1.161.774-1.936a4.688,4.688,0,0,1,3.872-1.935Z" transform="translate(-201.16 -198.696)" fill="#e60000"/>
        <path id="パス_2039" data-name="パス 2039" d="M213.244,272.381a10.089,10.089,0,0,1-1.452,1.452,2.606,2.606,0,0,1-.97.193,1.092,1.092,0,0,1,1.066-.871c-.387-.193-1.355,0-1.453,1.162l-.289.194c-.291-.1-.774-.871-.291-1.356a2.173,2.173,0,0,1,1.065-.58Z" transform="translate(-204.016 -204.447)" fill="#ffcd00"/>
        <path id="パス_2040" data-name="パス 2040" d="M220.011,266.13c-.641.046-1.229-.023-1.654.526a8.648,8.648,0,0,0-.347,1.382c.626-.282.8,1.145,1.441.4.19-.217-.015-.589.284-.872a1.5,1.5,0,0,1,.857-.306c.013-.389-.046-.915-.555-.871C220.021,266.3,220.034,266.22,220.011,266.13Z" transform="translate(-206.829 -202.344)" fill="#f0e8cd"/>
        <path id="パス_2041" data-name="パス 2041" d="M215.6,269.364a.483.483,0,1,1-.483-.484A.483.483,0,0,1,215.6,269.364Z" transform="translate(-205.691 -203.27)"/>
      </g>
    </g>
  </g>
</svg>
