<svg xmlns="http://www.w3.org/2000/svg" width="20" height="20" viewBox="0 0 20 20">
  <path id="パス_235" data-name="パス 235" d="M487.075,319.571c-3.13-.576-5.358-1.221-6.794-2.656s-2.081-3.664-2.656-6.794a.3.3,0,0,0-.6,0c-.576,3.13-1.221,5.358-2.657,6.794s-3.664,2.081-6.794,2.656a.3.3,0,0,0,0,.6c3.13.576,5.358,1.221,6.794,2.656s2.081,3.664,2.657,6.794a.3.3,0,0,0,.6,0c.576-3.13,1.221-5.358,2.656-6.794s3.664-2.081,6.794-2.656a.3.3,0,0,0,0-.6Zm-8.038,2.012a8.4,8.4,0,0,0-1.713,2.546,7.986,7.986,0,0,0-4.258-4.258,7.985,7.985,0,0,0,4.258-4.258,7.987,7.987,0,0,0,4.258,4.258A8.4,8.4,0,0,0,479.038,321.583Z" transform="translate(-467.325 -309.871)" fill="#fff"/>
</svg>
