<svg xmlns="http://www.w3.org/2000/svg" width="24" height="24" viewBox="0 0 24 24">
  <path id="open_in_new_24dp_1F1F1F_FILL0_wght400_GRAD0_opsz24" d="M122.667-816a2.568,2.568,0,0,1-1.883-.784,2.567,2.567,0,0,1-.783-1.883v-18.667a2.568,2.568,0,0,1,.783-1.883,2.568,2.568,0,0,1,1.883-.783H132v2.667h-9.333v18.667h18.667V-828H144v9.333a2.567,2.567,0,0,1-.783,1.883,2.568,2.568,0,0,1-1.883.784Zm6.267-7.067-1.867-1.867,12.4-12.4h-4.8V-840H144v9.333h-2.667v-4.8Z" transform="translate(-120 840)" fill="#010a39"/>
</svg>
